G75*
G70*
%OFA0B0*%
%FSLAX24Y24*%
%IPPOS*%
%LPD*%
%AMOC8*
5,1,8,0,0,1.08239X$1,22.5*
%
%ADD10C,0.1063*%
%ADD11C,0.1660*%
%ADD12O,0.1320X0.0660*%
%ADD13C,0.0620*%
%ADD14C,0.0620*%
%ADD15C,0.0520*%
%ADD16C,0.1093*%
%ADD17C,0.0600*%
%ADD18C,0.2000*%
%ADD19C,0.0594*%
%ADD20C,0.0866*%
%ADD21C,0.2750*%
%ADD22C,0.0320*%
%ADD23C,0.0160*%
D10*
X021657Y015573D03*
X026157Y015573D03*
X026157Y017778D03*
X025370Y018743D03*
X021657Y017778D03*
X020870Y018743D03*
X029870Y018743D03*
X030657Y017778D03*
X034370Y018743D03*
X035157Y017778D03*
X038870Y018743D03*
X039657Y017778D03*
X043370Y018743D03*
X044157Y017778D03*
X047870Y018743D03*
X048657Y017778D03*
X052370Y018743D03*
X053157Y017778D03*
X053157Y015573D03*
X048657Y015573D03*
X044157Y015573D03*
X039657Y015573D03*
X035157Y015573D03*
X030657Y015573D03*
D11*
X016186Y016477D03*
X014335Y015296D03*
X016186Y014115D03*
D12*
X026386Y012015D03*
X026386Y011015D03*
X026386Y010015D03*
D13*
X038786Y010415D03*
X044986Y010415D03*
X049986Y010415D03*
D14*
X049986Y011415D03*
X044986Y011415D03*
X038786Y011415D03*
D15*
X052886Y011915D03*
X056886Y011915D03*
X056886Y008815D03*
X057886Y008815D03*
D16*
X014138Y009116D03*
X014138Y010967D03*
X014138Y012817D03*
D17*
X032226Y007465D03*
X033306Y007465D03*
X034386Y007465D03*
X035466Y007465D03*
X036546Y007465D03*
X036006Y006465D03*
X034926Y006465D03*
X033846Y006465D03*
X032766Y006465D03*
D18*
X029456Y006965D03*
X039316Y006965D03*
D19*
X020886Y010315D03*
X018917Y010315D03*
X018917Y012284D03*
X020886Y012284D03*
D20*
X021811Y007737D03*
X024960Y007245D03*
X023386Y005965D03*
X017210Y007245D03*
X015636Y005965D03*
X014061Y007737D03*
X042311Y007737D03*
X045460Y007245D03*
X043886Y005965D03*
X050061Y007737D03*
X053210Y007245D03*
X051636Y005965D03*
D21*
X011086Y004565D03*
X011086Y018315D03*
X057686Y018315D03*
X057686Y004565D03*
D22*
X054486Y008515D02*
X053215Y007245D01*
X053210Y007245D01*
X054486Y008515D02*
X054486Y017115D01*
X053823Y017778D01*
X053157Y017778D01*
X053157Y015573D02*
X049986Y015573D01*
X049986Y011415D01*
X049986Y010415D02*
X044986Y010415D01*
X044586Y010015D01*
X040186Y010015D01*
X039786Y010415D01*
X038786Y010415D01*
X038786Y011415D02*
X038786Y015415D01*
X038886Y015515D01*
X039586Y015515D01*
X039644Y015573D01*
X044157Y015573D01*
X044527Y015573D01*
X045186Y014915D01*
X045186Y011615D01*
X044986Y011415D01*
X052886Y011915D02*
X052886Y013415D01*
X053157Y013687D01*
X053157Y015573D01*
X049986Y015573D02*
X048727Y015573D01*
X048657Y015643D01*
X048657Y015573D01*
X048657Y015643D02*
X048586Y015715D01*
X048586Y015915D01*
X047586Y016915D01*
X027686Y016915D01*
X027286Y016515D01*
X027286Y015265D01*
X026536Y014515D01*
X022736Y014515D01*
X022386Y014165D01*
X022386Y010015D01*
X023086Y010015D01*
X023086Y013465D01*
X023436Y013815D01*
X026636Y013815D01*
X027536Y014715D01*
X034986Y014715D01*
X035157Y014887D01*
X035157Y015573D01*
X030627Y015573D01*
X030586Y015615D01*
X030627Y015573D02*
X030657Y015573D01*
X034986Y014715D02*
X036186Y014715D01*
X036986Y015515D01*
X038886Y015515D01*
X039644Y015573D02*
X039657Y015573D01*
X026486Y010015D02*
X026386Y010015D01*
X023086Y010015D01*
X022386Y010015D02*
X021657Y010743D01*
X021657Y015573D01*
X021657Y015543D01*
X021686Y015515D01*
X021744Y015573D01*
X026157Y015573D01*
X024686Y016615D02*
X021086Y016615D01*
X020586Y016115D01*
X020586Y013515D01*
X019986Y012915D01*
X019986Y007965D01*
X019265Y007245D01*
X017210Y007245D01*
X016407Y007737D02*
X017686Y009015D01*
X017686Y012715D01*
X019386Y014415D01*
X019386Y017015D01*
X020149Y017778D01*
X021657Y017778D01*
X024686Y016615D02*
X025849Y017778D01*
X026157Y017778D01*
X026386Y010015D02*
X025786Y010015D01*
X016407Y007737D02*
X014061Y007737D01*
X056886Y008815D02*
X056886Y011915D01*
D23*
X042311Y007737D02*
X042264Y007737D01*
X041486Y008515D01*
X038286Y008515D01*
X037986Y008215D01*
X032386Y008215D01*
X032226Y008055D01*
X032226Y007465D01*
X034386Y007465D02*
X034386Y005315D01*
X034086Y005015D01*
X022186Y005015D01*
X021811Y005390D01*
X021811Y007737D01*
X019236Y007215D02*
X019236Y004915D01*
X019586Y004565D01*
X035236Y004565D01*
X035466Y004795D01*
X035466Y007465D01*
X036546Y007465D02*
X036546Y004675D01*
X035986Y004115D01*
X016986Y004115D01*
X016336Y004765D01*
X016336Y007665D01*
X015786Y007715D01*
X015807Y007737D01*
X014061Y007737D01*
X017210Y007245D02*
X019210Y007240D01*
X019236Y007215D01*
X027236Y008615D02*
X027236Y013515D01*
X037186Y013515D01*
X037186Y008615D01*
X027236Y008615D01*
X027236Y008764D02*
X037186Y008764D01*
X037186Y008923D02*
X027236Y008923D01*
X027236Y009081D02*
X037186Y009081D01*
X037186Y009240D02*
X027236Y009240D01*
X027236Y009398D02*
X037186Y009398D01*
X037186Y009557D02*
X027236Y009557D01*
X027236Y009715D02*
X037186Y009715D01*
X037186Y009874D02*
X027236Y009874D01*
X027236Y010032D02*
X037186Y010032D01*
X037186Y010191D02*
X032726Y010191D01*
X032812Y010227D02*
X033074Y010488D01*
X033216Y010830D01*
X033216Y011200D01*
X033074Y011542D01*
X032812Y011804D01*
X032471Y011945D01*
X032101Y011945D01*
X031759Y011804D01*
X031497Y011542D01*
X031356Y011200D01*
X031356Y010830D01*
X031497Y010488D01*
X031759Y010227D01*
X032101Y010085D01*
X032471Y010085D01*
X032812Y010227D01*
X032935Y010350D02*
X037186Y010350D01*
X037186Y010508D02*
X033082Y010508D01*
X033148Y010667D02*
X037186Y010667D01*
X037186Y010825D02*
X033214Y010825D01*
X033216Y010984D02*
X037186Y010984D01*
X037186Y011142D02*
X033216Y011142D01*
X033174Y011301D02*
X037186Y011301D01*
X037186Y011459D02*
X033108Y011459D01*
X032998Y011618D02*
X037186Y011618D01*
X037186Y011776D02*
X032839Y011776D01*
X032495Y011935D02*
X037186Y011935D01*
X037186Y012094D02*
X027236Y012094D01*
X027236Y012252D02*
X037186Y012252D01*
X037186Y012411D02*
X027236Y012411D01*
X027236Y012569D02*
X037186Y012569D01*
X037186Y012728D02*
X027236Y012728D01*
X027236Y012886D02*
X037186Y012886D01*
X037186Y013045D02*
X027236Y013045D01*
X027236Y013203D02*
X037186Y013203D01*
X037186Y013362D02*
X027236Y013362D01*
X027236Y011935D02*
X032076Y011935D01*
X031732Y011776D02*
X027236Y011776D01*
X027236Y011618D02*
X031573Y011618D01*
X031463Y011459D02*
X027236Y011459D01*
X027236Y011301D02*
X031397Y011301D01*
X031356Y011142D02*
X027236Y011142D01*
X027236Y010984D02*
X031356Y010984D01*
X031358Y010825D02*
X027236Y010825D01*
X027236Y010667D02*
X031423Y010667D01*
X031489Y010508D02*
X027236Y010508D01*
X027236Y010350D02*
X031636Y010350D01*
X031845Y010191D02*
X027236Y010191D01*
M02*
