G75*
G70*
%OFA0B0*%
%FSLAX24Y24*%
%IPPOS*%
%LPD*%
%AMOC8*
5,1,8,0,0,1.08239X$1,22.5*
%
%ADD10C,0.0040*%
D10*
X021937Y009195D02*
X022244Y009195D01*
X022244Y008735D01*
X022398Y008735D02*
X022398Y009042D01*
X022244Y008965D02*
X022091Y008965D01*
X022398Y008735D02*
X022628Y008735D01*
X022704Y008812D01*
X022704Y009042D01*
X022858Y009042D02*
X022935Y008965D01*
X022858Y008889D01*
X022858Y008812D01*
X022935Y008735D01*
X023088Y008735D01*
X023165Y008812D01*
X023318Y008812D02*
X023395Y008735D01*
X023548Y008735D01*
X023625Y008812D01*
X023779Y008812D02*
X023779Y008735D01*
X023855Y008735D01*
X023855Y008812D01*
X023779Y008812D01*
X024009Y008812D02*
X024009Y009119D01*
X024316Y008812D01*
X024239Y008735D01*
X024086Y008735D01*
X024009Y008812D01*
X024316Y008812D02*
X024316Y009119D01*
X024239Y009195D01*
X024086Y009195D01*
X024009Y009119D01*
X023625Y009119D02*
X023548Y009195D01*
X023395Y009195D01*
X023318Y009119D01*
X023318Y009042D01*
X023395Y008965D01*
X023318Y008889D01*
X023318Y008812D01*
X023395Y008965D02*
X023472Y008965D01*
X023165Y009119D02*
X023088Y009195D01*
X022935Y009195D01*
X022858Y009119D01*
X022858Y009042D01*
X022935Y008965D02*
X023011Y008965D01*
X023798Y009985D02*
X024105Y009985D01*
X023952Y009985D02*
X023952Y010445D01*
X024105Y010292D01*
X024259Y010369D02*
X024336Y010445D01*
X024489Y010445D01*
X024566Y010369D01*
X024566Y010062D01*
X024489Y009985D01*
X024336Y009985D01*
X024259Y010062D01*
X024239Y010935D02*
X024316Y011012D01*
X024009Y011319D01*
X024009Y011012D01*
X024086Y010935D01*
X024239Y010935D01*
X024316Y011012D02*
X024316Y011319D01*
X024239Y011395D01*
X024086Y011395D01*
X024009Y011319D01*
X023855Y011012D02*
X023779Y011012D01*
X023779Y010935D01*
X023855Y010935D01*
X023855Y011012D01*
X023625Y011012D02*
X023548Y010935D01*
X023395Y010935D01*
X023318Y011012D01*
X023318Y011089D01*
X023395Y011165D01*
X023472Y011165D01*
X023395Y011165D02*
X023318Y011242D01*
X023318Y011319D01*
X023395Y011395D01*
X023548Y011395D01*
X023625Y011319D01*
X023165Y011319D02*
X023088Y011395D01*
X022935Y011395D01*
X022858Y011319D01*
X022858Y011242D01*
X022935Y011165D01*
X022858Y011089D01*
X022858Y011012D01*
X022935Y010935D01*
X023088Y010935D01*
X023165Y011012D01*
X023011Y011165D02*
X022935Y011165D01*
X022704Y011242D02*
X022704Y011012D01*
X022628Y010935D01*
X022398Y010935D01*
X022398Y011242D01*
X022244Y011165D02*
X022091Y011165D01*
X022244Y010935D02*
X022244Y011395D01*
X021937Y011395D01*
X023798Y012262D02*
X023875Y012185D01*
X024029Y012185D01*
X024105Y012262D01*
X024105Y012415D02*
X023952Y012492D01*
X023875Y012492D01*
X023798Y012415D01*
X023798Y012262D01*
X024105Y012415D02*
X024105Y012645D01*
X023798Y012645D01*
X024259Y012569D02*
X024336Y012645D01*
X024489Y012645D01*
X024566Y012569D01*
X024566Y012262D01*
X024489Y012185D01*
X024336Y012185D01*
X024259Y012262D01*
X034606Y011436D02*
X034606Y011283D01*
X034682Y011206D01*
X034989Y011513D01*
X034682Y011513D01*
X034606Y011436D01*
X034682Y011206D02*
X034989Y011206D01*
X035066Y011283D01*
X035066Y011436D01*
X034989Y011513D01*
X034606Y011052D02*
X034606Y010745D01*
X034606Y010899D02*
X035066Y010899D01*
X034913Y010745D01*
X034989Y010592D02*
X035066Y010515D01*
X035066Y010362D01*
X034989Y010285D01*
X034682Y010285D01*
X034606Y010362D01*
X034606Y010515D01*
X034682Y010592D01*
X036156Y010645D02*
X036156Y010722D01*
X036232Y010722D01*
X036232Y010645D01*
X036156Y010645D01*
X036232Y010492D02*
X036156Y010415D01*
X036156Y010262D01*
X036232Y010185D01*
X036539Y010492D01*
X036232Y010492D01*
X036232Y010185D02*
X036539Y010185D01*
X036616Y010262D01*
X036616Y010415D01*
X036539Y010492D01*
X036539Y010876D02*
X036616Y010952D01*
X036616Y011106D01*
X036539Y011183D01*
X036463Y011183D01*
X036386Y011106D01*
X036309Y011183D01*
X036232Y011183D01*
X036156Y011106D01*
X036156Y010952D01*
X036232Y010876D01*
X036386Y011029D02*
X036386Y011106D01*
X036539Y011336D02*
X036616Y011413D01*
X036616Y011566D01*
X036539Y011643D01*
X036463Y011643D01*
X036386Y011566D01*
X036309Y011643D01*
X036232Y011643D01*
X036156Y011566D01*
X036156Y011413D01*
X036232Y011336D01*
X036386Y011489D02*
X036386Y011566D01*
X036463Y011796D02*
X036232Y011796D01*
X036156Y011873D01*
X036156Y012103D01*
X036463Y012103D01*
X036386Y012257D02*
X036386Y012410D01*
X036616Y012257D02*
X036616Y012564D01*
X036616Y012257D02*
X036156Y012257D01*
X042356Y012257D02*
X042816Y012257D01*
X042816Y012564D01*
X042586Y012410D02*
X042586Y012257D01*
X042663Y012103D02*
X042356Y012103D01*
X042356Y011873D01*
X042432Y011796D01*
X042663Y011796D01*
X042663Y011643D02*
X042586Y011566D01*
X042509Y011643D01*
X042432Y011643D01*
X042356Y011566D01*
X042356Y011413D01*
X042432Y011336D01*
X042432Y011183D02*
X042356Y011106D01*
X042356Y010952D01*
X042432Y010876D01*
X042432Y010722D02*
X042356Y010722D01*
X042356Y010645D01*
X042432Y010645D01*
X042432Y010722D01*
X042432Y010492D02*
X042356Y010415D01*
X042356Y010262D01*
X042432Y010185D01*
X042739Y010492D01*
X042432Y010492D01*
X042432Y010185D02*
X042739Y010185D01*
X042816Y010262D01*
X042816Y010415D01*
X042739Y010492D01*
X042739Y010876D02*
X042816Y010952D01*
X042816Y011106D01*
X042739Y011183D01*
X042663Y011183D01*
X042586Y011106D01*
X042509Y011183D01*
X042432Y011183D01*
X042586Y011106D02*
X042586Y011029D01*
X042739Y011336D02*
X042816Y011413D01*
X042816Y011566D01*
X042739Y011643D01*
X042663Y011643D01*
X042586Y011566D02*
X042586Y011489D01*
X043048Y011812D02*
X043048Y012119D01*
X043125Y012195D01*
X043279Y012195D01*
X043355Y012119D01*
X043355Y012042D01*
X043279Y011965D01*
X043048Y011965D01*
X043048Y011812D02*
X043125Y011735D01*
X043279Y011735D01*
X043355Y011812D01*
X043509Y011812D02*
X043586Y011735D01*
X043739Y011735D01*
X043816Y011812D01*
X043816Y012119D01*
X043739Y012195D01*
X043586Y012195D01*
X043509Y012119D01*
M02*
