G75*
G70*
%OFA0B0*%
%FSLAX24Y24*%
%IPPOS*%
%LPD*%
%AMOC8*
5,1,8,0,0,1.08239X$1,22.5*
%
%ADD10C,0.0749*%
%ADD11C,0.0600*%
%ADD12R,0.0592X0.0710*%
%ADD13R,0.0592X0.0671*%
%ADD14C,0.0520*%
%ADD15R,0.0710X0.0592*%
%ADD16R,0.0671X0.0592*%
%ADD17R,0.0552X0.0297*%
%ADD18C,0.0516*%
%ADD19C,0.0477*%
%ADD20C,0.2080*%
D10*
X014141Y006209D03*
X014141Y008964D03*
D11*
X011604Y006592D03*
X011604Y005592D03*
D12*
X015036Y006619D03*
X015784Y006619D03*
X015754Y007532D03*
X015006Y007532D03*
X015032Y009339D03*
X015780Y009339D03*
X015799Y003793D03*
X015051Y003793D03*
D13*
X010239Y004118D03*
X010908Y004118D03*
X011136Y002715D03*
X010466Y002715D03*
X015082Y004665D03*
X015751Y004665D03*
X015756Y005529D03*
X015086Y005529D03*
X015070Y008441D03*
X015739Y008441D03*
D14*
X014481Y008152D03*
X013581Y006892D03*
X014501Y004932D03*
X014096Y004314D03*
X013101Y004232D03*
X014096Y003330D03*
X014096Y002346D03*
X013481Y002312D03*
D15*
X014941Y002189D03*
X014941Y002937D03*
D16*
X015917Y002888D03*
X015917Y002219D03*
X013109Y008448D03*
X013109Y009118D03*
D17*
X013017Y003659D03*
X013017Y002911D03*
X011994Y002911D03*
X011994Y003285D03*
X011994Y003659D03*
D18*
X010998Y005718D03*
X010998Y006466D03*
D19*
X012076Y006092D03*
X012588Y005817D03*
X012588Y006368D03*
D20*
X010541Y008942D03*
M02*
