%
M48
M72
T01C0.0320
T02C0.0394
T03C0.0400
T04C0.0440
T05C0.0472
T06C0.0669
T07C0.0709
T08C0.0728
T09C0.1250
%
T01
X38786Y10415
X38786Y11415
X44986Y11415
X44986Y10415
X49986Y10415
X49986Y11415
X52886Y11915
X56886Y11915
X56886Y8815
X57886Y8815
T02
X20886Y10315
X18917Y10315
X18917Y12284
X20886Y12284
T03
X32226Y7465
X33306Y7465
X34386Y7465
X35466Y7465
X36546Y7465
X36006Y6465
X34926Y6465
X33846Y6465
X32766Y6465
T04
X26386Y10015
X26386Y11015
X26386Y12015
T05
X21811Y7737
X24960Y7245
X23386Y5965
X17210Y7245
X15636Y5965
X14061Y7737
X42311Y7737
X45460Y7245
X43886Y5965
X50061Y7737
X53210Y7245
X51636Y5965
T06
X54470Y5847
X54470Y6162
X54470Y6477
X48801Y6477
X48801Y6162
X48801Y5847
X46720Y5847
X46720Y6162
X46720Y6477
X41051Y6477
X41051Y6162
X41051Y5847
X26220Y5847
X26220Y6162
X26220Y6477
X20551Y6477
X20551Y6162
X20551Y5847
X18470Y5847
X18470Y6162
X18470Y6477
X12801Y6477
X12801Y6162
X12801Y5847
T07
X21657Y15573
X26157Y15573
X26157Y17778
X25370Y18743
X21657Y17778
X20870Y18743
X29870Y18743
X30657Y17778
X34370Y18743
X35157Y17778
X38870Y18743
X39657Y17778
X43370Y18743
X44157Y17778
X47870Y18743
X48657Y17778
X52370Y18743
X53157Y17778
X53157Y15573
X48657Y15573
X44157Y15573
X39657Y15573
X35157Y15573
X30657Y15573
T08
X14138Y12817
X10386Y13565
X14138Y10967
X14138Y9116
X10386Y8364
T09
X11086Y4565
X11086Y18315
X57686Y18315
X57686Y4565
X16186Y14115
X14335Y15296
X16186Y16477
X32286Y11015
X29456Y6965
X39316Y6965
M30
