G75*
G70*
%OFA0B0*%
%FSLAX24Y24*%
%IPPOS*%
%LPD*%
%AMOC8*
5,1,8,0,0,1.08239X$1,22.5*
%
%ADD10C,0.1063*%
%ADD11C,0.1660*%
%ADD12O,0.1320X0.0660*%
%ADD13C,0.0620*%
%ADD14C,0.0620*%
%ADD15C,0.0520*%
%ADD16R,0.0512X0.0591*%
%ADD17R,0.0591X0.0512*%
%ADD18C,0.1093*%
%ADD19C,0.0600*%
%ADD20C,0.2000*%
%ADD21C,0.0594*%
%ADD22C,0.0866*%
%ADD23C,0.2750*%
%ADD24C,0.0320*%
%ADD25C,0.0160*%
D10*
X021657Y015573D03*
X026157Y015573D03*
X026157Y017778D03*
X025370Y018743D03*
X021657Y017778D03*
X020870Y018743D03*
X029870Y018743D03*
X030657Y017778D03*
X034370Y018743D03*
X035157Y017778D03*
X038870Y018743D03*
X039657Y017778D03*
X043370Y018743D03*
X044157Y017778D03*
X047870Y018743D03*
X048657Y017778D03*
X052370Y018743D03*
X053157Y017778D03*
X053157Y015573D03*
X048657Y015573D03*
X044157Y015573D03*
X039657Y015573D03*
X035157Y015573D03*
X030657Y015573D03*
D11*
X016186Y016477D03*
X014335Y015296D03*
X016186Y014115D03*
D12*
X026386Y012015D03*
X026386Y011015D03*
X026386Y010015D03*
D13*
X038786Y010415D03*
X044986Y010415D03*
X049986Y010415D03*
D14*
X049986Y011415D03*
X044986Y011415D03*
X038786Y011415D03*
D15*
X052886Y011915D03*
X056886Y011915D03*
X056886Y008815D03*
X057886Y008815D03*
D16*
X024320Y009615D03*
X023651Y009615D03*
X023651Y011815D03*
X024320Y011815D03*
D17*
X035586Y011250D03*
X035586Y010580D03*
X043386Y010580D03*
X043386Y011250D03*
D18*
X014138Y010967D03*
X014138Y009116D03*
X014138Y012817D03*
D19*
X032226Y007465D03*
X033306Y007465D03*
X034386Y007465D03*
X035466Y007465D03*
X036546Y007465D03*
X036006Y006465D03*
X034926Y006465D03*
X033846Y006465D03*
X032766Y006465D03*
D20*
X029456Y006965D03*
X039316Y006965D03*
D21*
X020886Y010315D03*
X018917Y010315D03*
X018917Y012284D03*
X020886Y012284D03*
D22*
X021811Y007737D03*
X024960Y007245D03*
X023386Y005965D03*
X017210Y007245D03*
X015636Y005965D03*
X014061Y007737D03*
X042311Y007737D03*
X045460Y007245D03*
X043886Y005965D03*
X050061Y007737D03*
X053210Y007245D03*
X051636Y005965D03*
D23*
X011086Y004565D03*
X011086Y018315D03*
X057686Y018315D03*
X057686Y004565D03*
D24*
X050061Y007737D02*
X050033Y007765D01*
X048336Y007765D01*
X047086Y009015D01*
X047086Y017115D01*
X047749Y017778D01*
X048657Y017778D01*
X047870Y018743D02*
X043370Y018743D01*
X043370Y018731D01*
X043358Y018743D01*
X038870Y018743D01*
X034370Y018743D01*
X029870Y018743D01*
X025370Y018743D01*
X025358Y018743D01*
X025286Y018815D01*
X025213Y018743D01*
X020870Y018743D01*
X015263Y018743D01*
X012586Y016065D01*
X012586Y010915D01*
X013436Y010065D01*
X018786Y010065D01*
X018886Y010315D02*
X018917Y010315D01*
X017786Y011215D02*
X017537Y010967D01*
X014138Y010967D01*
X017786Y011215D02*
X019986Y011215D01*
X020886Y010315D01*
X021886Y009315D02*
X022186Y009615D01*
X023651Y009615D01*
X023651Y010780D01*
X023886Y011015D01*
X023686Y011215D01*
X023686Y011715D01*
X023586Y011815D01*
X023651Y011815D01*
X024320Y011815D02*
X024320Y012480D01*
X024286Y012515D01*
X025886Y012515D01*
X026386Y012015D01*
X026386Y011915D01*
X026486Y012015D01*
X027186Y012015D01*
X027586Y011615D01*
X027586Y009615D01*
X027286Y009315D01*
X025686Y009315D01*
X025386Y009615D01*
X024320Y009615D01*
X022386Y008715D02*
X027586Y008715D01*
X028286Y009415D01*
X028286Y015315D01*
X030657Y017687D01*
X030657Y017778D01*
X029870Y018743D02*
X029858Y018743D01*
X029786Y018815D01*
X025386Y018815D02*
X025286Y018815D01*
X025086Y018815D01*
X025158Y018743D01*
X025370Y018743D01*
X025370Y018799D01*
X025386Y018815D01*
X018186Y015065D02*
X018186Y012915D01*
X018886Y012215D01*
X018917Y012247D01*
X018917Y012284D01*
X020886Y012284D02*
X022654Y012284D01*
X022886Y012515D01*
X024286Y012515D01*
X023886Y011015D02*
X026386Y011015D01*
X028636Y008765D02*
X033686Y008765D01*
X034036Y009115D01*
X034036Y016365D01*
X035157Y017487D01*
X035157Y017778D01*
X034370Y018743D02*
X034213Y018743D01*
X034186Y018715D01*
X038686Y018715D02*
X038713Y018743D01*
X038870Y018743D01*
X039657Y017778D02*
X041323Y017778D01*
X041786Y017315D01*
X041786Y008265D01*
X042311Y007740D01*
X042311Y007737D01*
X045460Y007245D02*
X045986Y007770D01*
X045986Y017215D01*
X045423Y017778D01*
X044157Y017778D01*
X043386Y018715D02*
X043370Y018731D01*
X043370Y018743D02*
X043313Y018743D01*
X042586Y018015D01*
X042586Y010715D01*
X042720Y010580D01*
X043386Y010580D01*
X043820Y010580D01*
X044186Y010215D01*
X044786Y010215D01*
X044986Y010415D01*
X043920Y011250D02*
X044186Y011515D01*
X044786Y011515D01*
X044886Y011415D01*
X044986Y011415D01*
X043920Y011250D02*
X043386Y011250D01*
X038786Y011415D02*
X037086Y011415D01*
X036920Y011250D01*
X035586Y011250D01*
X035586Y010580D02*
X036820Y010580D01*
X037086Y010315D01*
X038686Y010315D01*
X038786Y010415D01*
X034036Y009115D02*
X033786Y008915D01*
X033286Y008415D01*
X033286Y007515D01*
X033306Y007495D01*
X033306Y007465D01*
X028636Y008765D02*
X027986Y008115D01*
X025836Y008115D01*
X024965Y007245D01*
X024960Y007245D01*
X022386Y008715D02*
X021811Y008140D01*
X021811Y007737D01*
X021886Y009315D02*
X019886Y009315D01*
X016186Y014115D02*
X014888Y012817D01*
X014138Y012817D01*
X016773Y016477D02*
X018186Y015065D01*
X016773Y016477D02*
X016186Y016477D01*
X047786Y018715D02*
X047813Y018743D01*
X047870Y018743D01*
X052370Y018743D01*
X049886Y010515D02*
X049986Y010415D01*
D25*
X049986Y010415D01*
X050476Y010415D01*
X050476Y010212D01*
X050189Y009925D01*
X049986Y009925D01*
X049986Y010415D01*
X050476Y010415D01*
X050476Y010618D01*
X050189Y010905D01*
X049986Y010905D01*
X049986Y010416D01*
X049985Y010416D01*
X049985Y010905D01*
X049783Y010905D01*
X049496Y010618D01*
X049496Y010415D01*
X049496Y010212D01*
X049783Y009925D01*
X049985Y009925D01*
X049985Y010415D01*
X049496Y010415D01*
X049985Y010415D01*
X049985Y010415D01*
X049986Y010415D01*
X049985Y010350D02*
X049986Y010350D01*
X049985Y010508D02*
X049986Y010508D01*
X049985Y010667D02*
X049986Y010667D01*
X049985Y010825D02*
X049986Y010825D01*
X050087Y010905D02*
X049884Y010905D01*
X049697Y010983D01*
X049553Y011126D01*
X049476Y011314D01*
X049476Y011517D01*
X049553Y011704D01*
X049697Y011847D01*
X049884Y011925D01*
X050087Y011925D01*
X050275Y011847D01*
X050418Y011704D01*
X050496Y011517D01*
X050496Y011314D01*
X050418Y011126D01*
X050275Y010983D01*
X050087Y010905D01*
X050268Y010825D02*
X058781Y010825D01*
X058781Y010667D02*
X050427Y010667D01*
X050476Y010508D02*
X058781Y010508D01*
X058781Y010350D02*
X050476Y010350D01*
X050454Y010191D02*
X058781Y010191D01*
X058781Y010032D02*
X050296Y010032D01*
X049986Y010032D02*
X049985Y010032D01*
X049985Y010191D02*
X049986Y010191D01*
X049675Y010032D02*
X047446Y010032D01*
X047446Y009874D02*
X058781Y009874D01*
X058781Y009715D02*
X047446Y009715D01*
X047446Y009557D02*
X058781Y009557D01*
X058781Y009398D02*
X047446Y009398D01*
X047446Y009240D02*
X056660Y009240D01*
X056695Y009275D02*
X056426Y009006D01*
X056426Y008625D01*
X056695Y008355D01*
X057076Y008355D01*
X057346Y008625D01*
X057346Y009006D01*
X057076Y009275D01*
X056695Y009275D01*
X056501Y009081D02*
X047529Y009081D01*
X047446Y009164D02*
X047446Y016966D01*
X047898Y017418D01*
X048015Y017418D01*
X048037Y017364D01*
X048243Y017158D01*
X048512Y017047D01*
X048803Y017047D01*
X049072Y017158D01*
X049277Y017364D01*
X049389Y017633D01*
X049389Y017924D01*
X049277Y018192D01*
X049072Y018398D01*
X048803Y018510D01*
X048543Y018510D01*
X048581Y018601D01*
X048581Y018663D01*
X047950Y018663D01*
X047950Y018823D01*
X048581Y018823D01*
X048581Y018884D01*
X048473Y019146D01*
X048273Y019346D01*
X048118Y019410D01*
X052122Y019410D01*
X051967Y019346D01*
X051767Y019146D01*
X051658Y018884D01*
X051658Y018823D01*
X052290Y018823D01*
X052290Y018663D01*
X051658Y018663D01*
X051658Y018601D01*
X051767Y018340D01*
X051967Y018139D01*
X052228Y018031D01*
X052290Y018031D01*
X052290Y018662D01*
X052450Y018662D01*
X052450Y018031D01*
X052470Y018031D01*
X052426Y017924D01*
X052426Y017633D01*
X052537Y017364D01*
X052743Y017158D01*
X053012Y017047D01*
X053303Y017047D01*
X053572Y017158D01*
X053777Y017364D01*
X053889Y017633D01*
X053889Y017924D01*
X053777Y018192D01*
X053572Y018398D01*
X053303Y018510D01*
X053043Y018510D01*
X053081Y018601D01*
X053081Y018663D01*
X052450Y018663D01*
X052450Y018823D01*
X053081Y018823D01*
X053081Y018884D01*
X052973Y019146D01*
X052773Y019346D01*
X052618Y019410D01*
X056553Y019410D01*
X056350Y019207D01*
X056111Y018628D01*
X056111Y018002D01*
X056350Y017423D01*
X056794Y016980D01*
X057372Y016740D01*
X057999Y016740D01*
X058578Y016980D01*
X058781Y017183D01*
X058781Y005697D01*
X058578Y005900D01*
X057999Y006140D01*
X057372Y006140D01*
X056794Y005900D01*
X056350Y005457D01*
X056111Y004878D01*
X056111Y004252D01*
X056350Y003673D01*
X056503Y003520D01*
X012268Y003520D01*
X012421Y003673D01*
X012661Y004252D01*
X012661Y004878D01*
X012480Y005315D01*
X012679Y005232D01*
X012923Y005232D01*
X013149Y005326D01*
X013322Y005499D01*
X013416Y005725D01*
X013416Y005969D01*
X013401Y006004D01*
X013416Y006040D01*
X013416Y006284D01*
X013401Y006319D01*
X013416Y006355D01*
X013416Y006599D01*
X013322Y006825D01*
X013149Y006998D01*
X012923Y007092D01*
X012679Y007092D01*
X012453Y006998D01*
X012280Y006825D01*
X012186Y006599D01*
X012186Y006355D01*
X012201Y006319D01*
X012186Y006284D01*
X012186Y006040D01*
X012201Y006004D01*
X012186Y005969D01*
X012186Y005725D01*
X012210Y005668D01*
X011978Y005900D01*
X011399Y006140D01*
X010772Y006140D01*
X010194Y005900D01*
X009991Y005697D01*
X009991Y007848D01*
X010021Y007818D01*
X010258Y007720D01*
X010514Y007720D01*
X010751Y007818D01*
X010932Y007999D01*
X011030Y008236D01*
X011030Y008492D01*
X010932Y008729D01*
X010751Y008910D01*
X010514Y009008D01*
X010258Y009008D01*
X010021Y008910D01*
X009991Y008880D01*
X009991Y013049D01*
X010021Y013019D01*
X010258Y012921D01*
X010514Y012921D01*
X010751Y013019D01*
X010932Y013200D01*
X011030Y013437D01*
X011030Y013693D01*
X010932Y013930D01*
X010751Y014111D01*
X010514Y014209D01*
X010258Y014209D01*
X010021Y014111D01*
X009991Y014081D01*
X009991Y017183D01*
X010194Y016980D01*
X010772Y016740D01*
X011399Y016740D01*
X011978Y016980D01*
X012421Y017423D01*
X012661Y018002D01*
X012661Y018628D01*
X012421Y019207D01*
X012218Y019410D01*
X020622Y019410D01*
X020467Y019346D01*
X020267Y019146D01*
X020158Y018884D01*
X020158Y018823D01*
X020790Y018823D01*
X020790Y018663D01*
X020158Y018663D01*
X020158Y018601D01*
X020267Y018340D01*
X020467Y018139D01*
X020728Y018031D01*
X020790Y018031D01*
X020790Y018662D01*
X020950Y018662D01*
X020950Y018031D01*
X020970Y018031D01*
X020926Y017924D01*
X020926Y017633D01*
X021037Y017364D01*
X021243Y017158D01*
X021512Y017047D01*
X021803Y017047D01*
X022072Y017158D01*
X022277Y017364D01*
X022389Y017633D01*
X022389Y017924D01*
X022277Y018192D01*
X022072Y018398D01*
X021803Y018510D01*
X021543Y018510D01*
X021581Y018601D01*
X021581Y018663D01*
X020950Y018663D01*
X020950Y018823D01*
X021581Y018823D01*
X021581Y018884D01*
X021473Y019146D01*
X021273Y019346D01*
X021118Y019410D01*
X025122Y019410D01*
X024967Y019346D01*
X024767Y019146D01*
X024658Y018884D01*
X024658Y018823D01*
X025290Y018823D01*
X025290Y018663D01*
X024658Y018663D01*
X024658Y018601D01*
X024767Y018340D01*
X024967Y018139D01*
X025228Y018031D01*
X025290Y018031D01*
X025290Y018662D01*
X025450Y018662D01*
X025450Y018031D01*
X025470Y018031D01*
X025426Y017924D01*
X025426Y017633D01*
X025537Y017364D01*
X025743Y017158D01*
X026012Y017047D01*
X026303Y017047D01*
X026572Y017158D01*
X026777Y017364D01*
X026889Y017633D01*
X026889Y017924D01*
X026777Y018192D01*
X026572Y018398D01*
X026303Y018510D01*
X026043Y018510D01*
X026081Y018601D01*
X026081Y018663D01*
X025450Y018663D01*
X025450Y018823D01*
X026081Y018823D01*
X026081Y018884D01*
X025973Y019146D01*
X025773Y019346D01*
X025618Y019410D01*
X029622Y019410D01*
X029467Y019346D01*
X029267Y019146D01*
X029158Y018884D01*
X029158Y018823D01*
X029790Y018823D01*
X029790Y018663D01*
X029158Y018663D01*
X029158Y018601D01*
X029267Y018340D01*
X029467Y018139D01*
X029728Y018031D01*
X029790Y018031D01*
X029790Y018662D01*
X029950Y018662D01*
X029950Y018031D01*
X029970Y018031D01*
X029926Y017924D01*
X029926Y017633D01*
X029975Y017514D01*
X027926Y015464D01*
X027926Y015166D01*
X027926Y011784D01*
X027546Y012164D01*
X027546Y012164D01*
X027335Y012375D01*
X027105Y012375D01*
X026935Y012545D01*
X026365Y012545D01*
X026035Y012875D01*
X025737Y012875D01*
X024435Y012875D01*
X024137Y012875D01*
X022737Y012875D01*
X022526Y012664D01*
X022505Y012644D01*
X021228Y012644D01*
X021167Y012705D01*
X020984Y012780D01*
X020787Y012780D01*
X020604Y012705D01*
X020464Y012565D01*
X020389Y012382D01*
X020389Y012185D01*
X020464Y012002D01*
X020604Y011862D01*
X020787Y011787D01*
X020984Y011787D01*
X021167Y011862D01*
X021228Y011924D01*
X022505Y011924D01*
X022803Y011924D01*
X023035Y012155D01*
X023215Y012155D01*
X023215Y011863D01*
X023603Y011863D01*
X023603Y011767D01*
X023699Y011767D01*
X023699Y011340D01*
X023962Y011340D01*
X023982Y011320D01*
X024659Y011320D01*
X024776Y011437D01*
X024776Y012155D01*
X025526Y012155D01*
X025526Y011796D01*
X025820Y011501D01*
X025546Y011226D01*
X025546Y011045D01*
X026355Y011045D01*
X026355Y010985D01*
X025546Y010985D01*
X025546Y010804D01*
X025820Y010529D01*
X025526Y010235D01*
X025526Y009975D01*
X025237Y009975D01*
X024776Y009975D01*
X024776Y009993D01*
X024659Y010110D01*
X023982Y010110D01*
X023962Y010090D01*
X023699Y010090D01*
X023699Y009663D01*
X023603Y009663D01*
X023603Y009567D01*
X023699Y009567D01*
X023699Y009140D01*
X023962Y009140D01*
X023982Y009120D01*
X024659Y009120D01*
X024776Y009237D01*
X024776Y009255D01*
X025237Y009255D01*
X025326Y009166D01*
X025417Y009075D01*
X022237Y009075D01*
X022026Y008864D01*
X021451Y008289D01*
X021451Y008272D01*
X021274Y008095D01*
X021178Y007863D01*
X021178Y007611D01*
X021274Y007378D01*
X021452Y007200D01*
X021685Y007104D01*
X021937Y007104D01*
X022169Y007200D01*
X022348Y007378D01*
X022444Y007611D01*
X022444Y007863D01*
X022348Y008095D01*
X022311Y008132D01*
X022535Y008355D01*
X025567Y008355D01*
X025088Y007877D01*
X025086Y007878D01*
X024835Y007878D01*
X024602Y007781D01*
X024424Y007603D01*
X024327Y007371D01*
X024327Y007119D01*
X024424Y006886D01*
X024602Y006708D01*
X024835Y006612D01*
X025086Y006612D01*
X025319Y006708D01*
X025497Y006886D01*
X025594Y007119D01*
X025594Y007364D01*
X025985Y007755D01*
X028135Y007755D01*
X028346Y007966D01*
X028785Y008405D01*
X032926Y008405D01*
X032926Y007792D01*
X032806Y007672D01*
X032806Y007258D01*
X033099Y006965D01*
X033513Y006965D01*
X033806Y007258D01*
X033806Y007672D01*
X033646Y007832D01*
X033646Y008266D01*
X033785Y008405D01*
X033835Y008405D01*
X034185Y008755D01*
X034276Y008846D01*
X034353Y008924D01*
X034396Y008966D01*
X034396Y016216D01*
X035226Y017047D01*
X035303Y017047D01*
X035572Y017158D01*
X035777Y017364D01*
X035889Y017633D01*
X035889Y017924D01*
X035777Y018192D01*
X035572Y018398D01*
X035303Y018510D01*
X035043Y018510D01*
X035081Y018601D01*
X035081Y018663D01*
X034450Y018663D01*
X034450Y018823D01*
X035081Y018823D01*
X035081Y018884D01*
X034973Y019146D01*
X034773Y019346D01*
X034618Y019410D01*
X038622Y019410D01*
X038467Y019346D01*
X038267Y019146D01*
X038158Y018884D01*
X038158Y018823D01*
X038790Y018823D01*
X038790Y018663D01*
X038158Y018663D01*
X038158Y018601D01*
X038267Y018340D01*
X038467Y018139D01*
X038728Y018031D01*
X038790Y018031D01*
X038790Y018662D01*
X038950Y018662D01*
X038950Y018031D01*
X038970Y018031D01*
X038926Y017924D01*
X038926Y017633D01*
X039037Y017364D01*
X039243Y017158D01*
X039512Y017047D01*
X039803Y017047D01*
X040072Y017158D01*
X040277Y017364D01*
X040300Y017418D01*
X041174Y017418D01*
X041426Y017166D01*
X041426Y008116D01*
X041637Y007905D01*
X041678Y007864D01*
X041678Y007863D01*
X041678Y007611D01*
X041774Y007378D01*
X041952Y007200D01*
X042185Y007104D01*
X042437Y007104D01*
X042669Y007200D01*
X042848Y007378D01*
X042944Y007611D01*
X042944Y007863D01*
X042848Y008095D01*
X042669Y008273D01*
X042437Y008370D01*
X042190Y008370D01*
X042146Y008414D01*
X042146Y017464D01*
X041935Y017675D01*
X041472Y018138D01*
X041174Y018138D01*
X040300Y018138D01*
X040277Y018192D01*
X040072Y018398D01*
X039803Y018510D01*
X039543Y018510D01*
X039581Y018601D01*
X039581Y018663D01*
X038950Y018663D01*
X038950Y018823D01*
X039581Y018823D01*
X039581Y018884D01*
X039473Y019146D01*
X039273Y019346D01*
X039118Y019410D01*
X043122Y019410D01*
X042967Y019346D01*
X042767Y019146D01*
X042658Y018884D01*
X042658Y018823D01*
X043290Y018823D01*
X043290Y018663D01*
X042658Y018663D01*
X042658Y018601D01*
X042767Y018340D01*
X042967Y018139D01*
X043228Y018031D01*
X043290Y018031D01*
X043290Y018662D01*
X043450Y018662D01*
X043450Y018031D01*
X043470Y018031D01*
X043426Y017924D01*
X043426Y017633D01*
X043537Y017364D01*
X043743Y017158D01*
X044012Y017047D01*
X044303Y017047D01*
X044572Y017158D01*
X044777Y017364D01*
X044800Y017418D01*
X045274Y017418D01*
X045626Y017066D01*
X045626Y007919D01*
X045584Y007878D01*
X045335Y007878D01*
X045102Y007781D01*
X044924Y007603D01*
X044827Y007371D01*
X044827Y007119D01*
X044924Y006886D01*
X045102Y006708D01*
X045180Y006675D01*
X045180Y005456D01*
X044920Y005195D01*
X036802Y005195D01*
X036286Y005711D01*
X036286Y006038D01*
X036506Y006258D01*
X036506Y006672D01*
X036213Y006965D01*
X035799Y006965D01*
X035506Y006672D01*
X035506Y006258D01*
X035726Y006038D01*
X035726Y005711D01*
X035726Y005479D01*
X036406Y004799D01*
X036570Y004635D01*
X044920Y004635D01*
X045152Y004635D01*
X045740Y005224D01*
X045740Y005456D01*
X045740Y006675D01*
X045819Y006708D01*
X045997Y006886D01*
X046094Y007119D01*
X046094Y007369D01*
X046135Y007410D01*
X046346Y007621D01*
X046346Y017364D01*
X046135Y017575D01*
X045572Y018138D01*
X045274Y018138D01*
X044800Y018138D01*
X044777Y018192D01*
X044572Y018398D01*
X044303Y018510D01*
X044043Y018510D01*
X044081Y018601D01*
X044081Y018663D01*
X043450Y018663D01*
X043450Y018823D01*
X044081Y018823D01*
X044081Y018884D01*
X043973Y019146D01*
X043773Y019346D01*
X043618Y019410D01*
X047622Y019410D01*
X047467Y019346D01*
X047267Y019146D01*
X047158Y018884D01*
X047158Y018823D01*
X047790Y018823D01*
X047790Y018663D01*
X047158Y018663D01*
X047158Y018601D01*
X047267Y018340D01*
X047467Y018139D01*
X047562Y018100D01*
X046937Y017475D01*
X046726Y017264D01*
X046726Y009164D01*
X046726Y008866D01*
X047976Y007616D01*
X048187Y007405D01*
X049513Y007405D01*
X049524Y007378D01*
X049702Y007200D01*
X049756Y007178D01*
X049756Y005531D01*
X048820Y004595D01*
X035502Y004595D01*
X035206Y004891D01*
X035206Y006038D01*
X035426Y006258D01*
X035426Y006672D01*
X035133Y006965D01*
X034719Y006965D01*
X034426Y006672D01*
X034426Y006258D01*
X034646Y006038D01*
X034646Y004891D01*
X034646Y004659D01*
X035106Y004199D01*
X035110Y004195D01*
X034602Y004195D01*
X034126Y004671D01*
X034126Y006038D01*
X034346Y006258D01*
X034346Y006672D01*
X034053Y006965D01*
X033639Y006965D01*
X033346Y006672D01*
X033346Y006258D01*
X033566Y006038D01*
X033566Y004671D01*
X033566Y004439D01*
X034206Y003799D01*
X034370Y003635D01*
X052270Y003635D01*
X052502Y003635D01*
X053490Y004624D01*
X053490Y004856D01*
X053490Y006675D01*
X053569Y006708D01*
X053747Y006886D01*
X053844Y007119D01*
X053844Y007371D01*
X053747Y007603D01*
X053569Y007781D01*
X053336Y007878D01*
X053085Y007878D01*
X052852Y007781D01*
X052674Y007603D01*
X052577Y007371D01*
X052577Y007119D01*
X052674Y006886D01*
X052852Y006708D01*
X052930Y006675D01*
X052930Y004856D01*
X052270Y004195D01*
X049212Y004195D01*
X050316Y005299D01*
X050316Y005531D01*
X050316Y007157D01*
X050419Y007200D01*
X050598Y007378D01*
X050694Y007611D01*
X050694Y007863D01*
X050598Y008095D01*
X050419Y008273D01*
X050187Y008370D01*
X049935Y008370D01*
X049702Y008273D01*
X049554Y008125D01*
X048485Y008125D01*
X047446Y009164D01*
X047687Y008923D02*
X056426Y008923D01*
X056426Y008764D02*
X047846Y008764D01*
X048004Y008606D02*
X056445Y008606D01*
X056603Y008447D02*
X048163Y008447D01*
X048321Y008289D02*
X049739Y008289D01*
X049559Y008130D02*
X048480Y008130D01*
X047779Y007813D02*
X046346Y007813D01*
X046346Y007971D02*
X047620Y007971D01*
X047462Y008130D02*
X046346Y008130D01*
X046346Y008289D02*
X047303Y008289D01*
X047145Y008447D02*
X046346Y008447D01*
X046346Y008606D02*
X046986Y008606D01*
X046828Y008764D02*
X046346Y008764D01*
X046346Y008923D02*
X046726Y008923D01*
X046726Y009081D02*
X046346Y009081D01*
X046346Y009240D02*
X046726Y009240D01*
X046726Y009398D02*
X046346Y009398D01*
X046346Y009557D02*
X046726Y009557D01*
X046726Y009715D02*
X046346Y009715D01*
X046346Y009874D02*
X046726Y009874D01*
X046726Y010032D02*
X046346Y010032D01*
X046346Y010191D02*
X046726Y010191D01*
X046726Y010350D02*
X046346Y010350D01*
X046346Y010508D02*
X046726Y010508D01*
X046726Y010667D02*
X046346Y010667D01*
X046346Y010825D02*
X046726Y010825D01*
X046726Y010984D02*
X046346Y010984D01*
X046346Y011142D02*
X046726Y011142D01*
X046726Y011301D02*
X046346Y011301D01*
X046346Y011459D02*
X046726Y011459D01*
X046726Y011618D02*
X046346Y011618D01*
X046346Y011776D02*
X046726Y011776D01*
X046726Y011935D02*
X046346Y011935D01*
X046346Y012094D02*
X046726Y012094D01*
X046726Y012252D02*
X046346Y012252D01*
X046346Y012411D02*
X046726Y012411D01*
X046726Y012569D02*
X046346Y012569D01*
X046346Y012728D02*
X046726Y012728D01*
X046726Y012886D02*
X046346Y012886D01*
X046346Y013045D02*
X046726Y013045D01*
X046726Y013203D02*
X046346Y013203D01*
X046346Y013362D02*
X046726Y013362D01*
X046726Y013520D02*
X046346Y013520D01*
X046346Y013679D02*
X046726Y013679D01*
X046726Y013838D02*
X046346Y013838D01*
X046346Y013996D02*
X046726Y013996D01*
X046726Y014155D02*
X046346Y014155D01*
X046346Y014313D02*
X046726Y014313D01*
X046726Y014472D02*
X046346Y014472D01*
X046346Y014630D02*
X046726Y014630D01*
X046726Y014789D02*
X046346Y014789D01*
X046346Y014947D02*
X046726Y014947D01*
X046726Y015106D02*
X046346Y015106D01*
X046346Y015264D02*
X046726Y015264D01*
X046726Y015423D02*
X046346Y015423D01*
X046346Y015581D02*
X046726Y015581D01*
X046726Y015740D02*
X046346Y015740D01*
X046346Y015899D02*
X046726Y015899D01*
X046726Y016057D02*
X046346Y016057D01*
X046346Y016216D02*
X046726Y016216D01*
X046726Y016374D02*
X046346Y016374D01*
X046346Y016533D02*
X046726Y016533D01*
X046726Y016691D02*
X046346Y016691D01*
X046346Y016850D02*
X046726Y016850D01*
X046726Y017008D02*
X046346Y017008D01*
X046346Y017167D02*
X046726Y017167D01*
X046787Y017325D02*
X046346Y017325D01*
X046226Y017484D02*
X046945Y017484D01*
X047104Y017643D02*
X046067Y017643D01*
X045909Y017801D02*
X047263Y017801D01*
X047421Y017960D02*
X045750Y017960D01*
X045592Y018118D02*
X047518Y018118D01*
X047330Y018277D02*
X044693Y018277D01*
X044482Y018435D02*
X047227Y018435D01*
X047161Y018594D02*
X044078Y018594D01*
X044070Y018911D02*
X047169Y018911D01*
X047235Y019069D02*
X044005Y019069D01*
X043891Y019228D02*
X047349Y019228D01*
X047565Y019387D02*
X043675Y019387D01*
X043065Y019387D02*
X039175Y019387D01*
X039391Y019228D02*
X042849Y019228D01*
X042735Y019069D02*
X039505Y019069D01*
X039570Y018911D02*
X042669Y018911D01*
X042661Y018594D02*
X039578Y018594D01*
X039982Y018435D02*
X042727Y018435D01*
X042830Y018277D02*
X040193Y018277D01*
X038950Y018277D02*
X038790Y018277D01*
X038790Y018435D02*
X038950Y018435D01*
X038950Y018594D02*
X038790Y018594D01*
X038790Y018752D02*
X034450Y018752D01*
X034450Y018662D02*
X034450Y018031D01*
X034470Y018031D01*
X034426Y017924D01*
X034426Y017633D01*
X034534Y017372D01*
X033887Y016725D01*
X033676Y016514D01*
X033676Y009288D01*
X033659Y009275D01*
X033637Y009275D01*
X033545Y009184D01*
X033545Y009184D01*
X033487Y009125D01*
X028505Y009125D01*
X028646Y009266D01*
X028646Y015166D01*
X030526Y017047D01*
X030803Y017047D01*
X031072Y017158D01*
X031277Y017364D01*
X031389Y017633D01*
X031389Y017924D01*
X031277Y018192D01*
X031072Y018398D01*
X030803Y018510D01*
X030543Y018510D01*
X030581Y018601D01*
X030581Y018663D01*
X029950Y018663D01*
X029950Y018823D01*
X030581Y018823D01*
X030581Y018884D01*
X030473Y019146D01*
X030273Y019346D01*
X030118Y019410D01*
X034122Y019410D01*
X033967Y019346D01*
X033767Y019146D01*
X033658Y018884D01*
X033658Y018823D01*
X034290Y018823D01*
X034290Y018663D01*
X033658Y018663D01*
X033658Y018601D01*
X033767Y018340D01*
X033967Y018139D01*
X034228Y018031D01*
X034290Y018031D01*
X034290Y018662D01*
X034450Y018662D01*
X034450Y018594D02*
X034290Y018594D01*
X034290Y018752D02*
X029950Y018752D01*
X029950Y018594D02*
X029790Y018594D01*
X029790Y018752D02*
X025450Y018752D01*
X025450Y018594D02*
X025290Y018594D01*
X025290Y018752D02*
X020950Y018752D01*
X020950Y018594D02*
X020790Y018594D01*
X020790Y018752D02*
X012609Y018752D01*
X012661Y018594D02*
X020161Y018594D01*
X020227Y018435D02*
X012661Y018435D01*
X012661Y018277D02*
X020330Y018277D01*
X020518Y018118D02*
X012661Y018118D01*
X012643Y017960D02*
X020941Y017960D01*
X020950Y018118D02*
X020790Y018118D01*
X020790Y018277D02*
X020950Y018277D01*
X020950Y018435D02*
X020790Y018435D01*
X021578Y018594D02*
X024661Y018594D01*
X024727Y018435D02*
X021982Y018435D01*
X022193Y018277D02*
X024830Y018277D01*
X025018Y018118D02*
X022308Y018118D01*
X022374Y017960D02*
X025441Y017960D01*
X025450Y018118D02*
X025290Y018118D01*
X025290Y018277D02*
X025450Y018277D01*
X025450Y018435D02*
X025290Y018435D01*
X026078Y018594D02*
X029161Y018594D01*
X029227Y018435D02*
X026482Y018435D01*
X026693Y018277D02*
X029330Y018277D01*
X029518Y018118D02*
X026808Y018118D01*
X026874Y017960D02*
X029941Y017960D01*
X029950Y018118D02*
X029790Y018118D01*
X029790Y018277D02*
X029950Y018277D01*
X029950Y018435D02*
X029790Y018435D01*
X029926Y017801D02*
X026889Y017801D01*
X026889Y017643D02*
X029926Y017643D01*
X029946Y017484D02*
X026827Y017484D01*
X026739Y017325D02*
X029787Y017325D01*
X029628Y017167D02*
X026581Y017167D01*
X025734Y017167D02*
X022081Y017167D01*
X022239Y017325D02*
X025575Y017325D01*
X025487Y017484D02*
X022327Y017484D01*
X022389Y017643D02*
X025426Y017643D01*
X025426Y017801D02*
X022389Y017801D01*
X021234Y017167D02*
X016953Y017167D01*
X017059Y017061D02*
X016769Y017350D01*
X016391Y017507D01*
X015981Y017507D01*
X015602Y017350D01*
X015313Y017061D01*
X015156Y016682D01*
X015156Y016272D01*
X015313Y015894D01*
X015602Y015604D01*
X015981Y015447D01*
X016391Y015447D01*
X016769Y015604D01*
X016953Y015788D01*
X017826Y014916D01*
X017826Y013064D01*
X017826Y012766D01*
X018430Y012162D01*
X018496Y012002D01*
X018636Y011862D01*
X018818Y011787D01*
X019016Y011787D01*
X019199Y011862D01*
X019338Y012002D01*
X019414Y012185D01*
X019414Y012382D01*
X019338Y012565D01*
X019199Y012705D01*
X019016Y012780D01*
X018829Y012780D01*
X018546Y013064D01*
X018546Y015214D01*
X018335Y015425D01*
X017216Y016544D01*
X017216Y016682D01*
X017059Y017061D01*
X017080Y017008D02*
X029470Y017008D01*
X029311Y016850D02*
X017146Y016850D01*
X017212Y016691D02*
X029153Y016691D01*
X028994Y016533D02*
X017227Y016533D01*
X017386Y016374D02*
X028836Y016374D01*
X028677Y016216D02*
X026518Y016216D01*
X026572Y016194D02*
X026303Y016305D01*
X026012Y016305D01*
X025743Y016194D01*
X025537Y015988D01*
X025426Y015719D01*
X025426Y015428D01*
X025537Y015159D01*
X025743Y014953D01*
X026012Y014842D01*
X026303Y014842D01*
X026572Y014953D01*
X026777Y015159D01*
X026889Y015428D01*
X026889Y015719D01*
X026777Y015988D01*
X026572Y016194D01*
X026708Y016057D02*
X028519Y016057D01*
X028360Y015899D02*
X026814Y015899D01*
X026880Y015740D02*
X028202Y015740D01*
X028043Y015581D02*
X026889Y015581D01*
X026887Y015423D02*
X027926Y015423D01*
X027926Y015264D02*
X026821Y015264D01*
X026724Y015106D02*
X027926Y015106D01*
X027926Y014947D02*
X026557Y014947D01*
X025757Y014947D02*
X022057Y014947D01*
X022072Y014953D02*
X022277Y015159D01*
X022389Y015428D01*
X022389Y015719D01*
X022277Y015988D01*
X022072Y016194D01*
X021803Y016305D01*
X021512Y016305D01*
X021243Y016194D01*
X021037Y015988D01*
X020926Y015719D01*
X020926Y015428D01*
X021037Y015159D01*
X021243Y014953D01*
X021512Y014842D01*
X021803Y014842D01*
X022072Y014953D01*
X022224Y015106D02*
X025590Y015106D01*
X025494Y015264D02*
X022321Y015264D01*
X022387Y015423D02*
X025428Y015423D01*
X025426Y015581D02*
X022389Y015581D01*
X022380Y015740D02*
X025435Y015740D01*
X025500Y015899D02*
X022314Y015899D01*
X022208Y016057D02*
X025607Y016057D01*
X025796Y016216D02*
X022018Y016216D01*
X021296Y016216D02*
X017544Y016216D01*
X017703Y016057D02*
X021107Y016057D01*
X021000Y015899D02*
X017861Y015899D01*
X018020Y015740D02*
X020935Y015740D01*
X020926Y015581D02*
X018178Y015581D01*
X018337Y015423D02*
X020928Y015423D01*
X020994Y015264D02*
X018495Y015264D01*
X018546Y015106D02*
X021090Y015106D01*
X021257Y014947D02*
X018546Y014947D01*
X018546Y014789D02*
X027926Y014789D01*
X027926Y014630D02*
X018546Y014630D01*
X018546Y014472D02*
X027926Y014472D01*
X027926Y014313D02*
X018546Y014313D01*
X018546Y014155D02*
X027926Y014155D01*
X027926Y013996D02*
X018546Y013996D01*
X018546Y013838D02*
X027926Y013838D01*
X027926Y013679D02*
X018546Y013679D01*
X018546Y013520D02*
X027926Y013520D01*
X027926Y013362D02*
X018546Y013362D01*
X018546Y013203D02*
X027926Y013203D01*
X027926Y013045D02*
X018565Y013045D01*
X018724Y012886D02*
X027926Y012886D01*
X027926Y012728D02*
X026182Y012728D01*
X026341Y012569D02*
X027926Y012569D01*
X027926Y012411D02*
X027070Y012411D01*
X027458Y012252D02*
X027926Y012252D01*
X027926Y012094D02*
X027616Y012094D01*
X027775Y011935D02*
X027926Y011935D01*
X028646Y011935D02*
X031517Y011935D01*
X031550Y011963D02*
X031467Y011892D01*
X031390Y011814D01*
X031321Y011729D01*
X031260Y011639D01*
X031208Y011543D01*
X031164Y011443D01*
X031130Y011339D01*
X031106Y011232D01*
X031091Y011124D01*
X031086Y011015D01*
X031091Y010906D01*
X031106Y010798D01*
X031130Y010691D01*
X031164Y010588D01*
X031208Y010487D01*
X031260Y010392D01*
X031321Y010301D01*
X031390Y010216D01*
X031467Y010138D01*
X031550Y010067D01*
X031639Y010004D01*
X031734Y009950D01*
X031833Y009904D01*
X031936Y009867D01*
X032041Y009840D01*
X032149Y009823D01*
X032258Y009815D01*
X032368Y009818D01*
X032476Y009830D01*
X032583Y009853D01*
X032688Y009884D01*
X032789Y009926D01*
X032886Y009976D01*
X032978Y010035D01*
X033064Y010102D01*
X033144Y010176D01*
X033216Y010258D01*
X033281Y010346D01*
X033338Y010439D01*
X033386Y010537D01*
X033425Y010639D01*
X033455Y010744D01*
X033474Y010852D01*
X033484Y010960D01*
X033484Y011070D01*
X033474Y011179D01*
X033455Y011286D01*
X033425Y011391D01*
X033386Y011493D01*
X033338Y011591D01*
X033281Y011685D01*
X033216Y011772D01*
X033144Y011854D01*
X033064Y011928D01*
X032978Y011995D01*
X032886Y012054D01*
X032789Y012105D01*
X032688Y012146D01*
X032583Y012178D01*
X032476Y012200D01*
X032368Y012212D01*
X032258Y012215D01*
X032149Y012207D01*
X032041Y012190D01*
X031936Y012163D01*
X031833Y012126D01*
X031734Y012081D01*
X031639Y012026D01*
X031550Y011963D01*
X031762Y012094D02*
X028646Y012094D01*
X028646Y012252D02*
X033676Y012252D01*
X033676Y012094D02*
X032810Y012094D01*
X033056Y011935D02*
X033676Y011935D01*
X033676Y011776D02*
X033213Y011776D01*
X033322Y011618D02*
X033676Y011618D01*
X033676Y011459D02*
X033399Y011459D01*
X033451Y011301D02*
X033676Y011301D01*
X033676Y011142D02*
X033478Y011142D01*
X033484Y010984D02*
X033676Y010984D01*
X033676Y010825D02*
X033470Y010825D01*
X033433Y010667D02*
X033676Y010667D01*
X033676Y010508D02*
X033372Y010508D01*
X033284Y010350D02*
X033676Y010350D01*
X033676Y010191D02*
X033157Y010191D01*
X032974Y010032D02*
X033676Y010032D01*
X033676Y009874D02*
X032653Y009874D01*
X031917Y009874D02*
X028646Y009874D01*
X028646Y010032D02*
X031599Y010032D01*
X031415Y010191D02*
X028646Y010191D01*
X028646Y010350D02*
X031289Y010350D01*
X031199Y010508D02*
X028646Y010508D01*
X028646Y010667D02*
X031138Y010667D01*
X031102Y010825D02*
X028646Y010825D01*
X028646Y010984D02*
X031087Y010984D01*
X031093Y011142D02*
X028646Y011142D01*
X028646Y011301D02*
X031121Y011301D01*
X031172Y011459D02*
X028646Y011459D01*
X028646Y011618D02*
X031249Y011618D01*
X031360Y011776D02*
X028646Y011776D01*
X028646Y012411D02*
X033676Y012411D01*
X033676Y012569D02*
X028646Y012569D01*
X028646Y012728D02*
X033676Y012728D01*
X033676Y012886D02*
X028646Y012886D01*
X028646Y013045D02*
X033676Y013045D01*
X033676Y013203D02*
X028646Y013203D01*
X028646Y013362D02*
X033676Y013362D01*
X033676Y013520D02*
X028646Y013520D01*
X028646Y013679D02*
X033676Y013679D01*
X033676Y013838D02*
X028646Y013838D01*
X028646Y013996D02*
X033676Y013996D01*
X033676Y014155D02*
X028646Y014155D01*
X028646Y014313D02*
X033676Y014313D01*
X033676Y014472D02*
X028646Y014472D01*
X028646Y014630D02*
X033676Y014630D01*
X033676Y014789D02*
X028646Y014789D01*
X028646Y014947D02*
X030257Y014947D01*
X030243Y014953D02*
X030512Y014842D01*
X030803Y014842D01*
X031072Y014953D01*
X031277Y015159D01*
X031389Y015428D01*
X031389Y015719D01*
X031277Y015988D01*
X031072Y016194D01*
X030803Y016305D01*
X030512Y016305D01*
X030243Y016194D01*
X030037Y015988D01*
X029926Y015719D01*
X029926Y015428D01*
X030037Y015159D01*
X030243Y014953D01*
X030090Y015106D02*
X028646Y015106D01*
X028744Y015264D02*
X029994Y015264D01*
X029928Y015423D02*
X028903Y015423D01*
X029061Y015581D02*
X029926Y015581D01*
X029935Y015740D02*
X029220Y015740D01*
X029378Y015899D02*
X030000Y015899D01*
X030107Y016057D02*
X029537Y016057D01*
X029695Y016216D02*
X030296Y016216D01*
X030012Y016533D02*
X033694Y016533D01*
X033676Y016374D02*
X029854Y016374D01*
X030171Y016691D02*
X033853Y016691D01*
X034011Y016850D02*
X030329Y016850D01*
X030488Y017008D02*
X034170Y017008D01*
X034328Y017167D02*
X031081Y017167D01*
X031239Y017325D02*
X034487Y017325D01*
X034487Y017484D02*
X031327Y017484D01*
X031389Y017643D02*
X034426Y017643D01*
X034426Y017801D02*
X031389Y017801D01*
X031374Y017960D02*
X034441Y017960D01*
X034450Y018118D02*
X034290Y018118D01*
X034290Y018277D02*
X034450Y018277D01*
X034450Y018435D02*
X034290Y018435D01*
X034018Y018118D02*
X031308Y018118D01*
X031193Y018277D02*
X033830Y018277D01*
X033727Y018435D02*
X030982Y018435D01*
X030578Y018594D02*
X033661Y018594D01*
X033669Y018911D02*
X030570Y018911D01*
X030505Y019069D02*
X033735Y019069D01*
X033849Y019228D02*
X030391Y019228D01*
X030175Y019387D02*
X034065Y019387D01*
X034675Y019387D02*
X038565Y019387D01*
X038349Y019228D02*
X034891Y019228D01*
X035005Y019069D02*
X038235Y019069D01*
X038169Y018911D02*
X035070Y018911D01*
X035078Y018594D02*
X038161Y018594D01*
X038227Y018435D02*
X035482Y018435D01*
X035693Y018277D02*
X038330Y018277D01*
X038518Y018118D02*
X035808Y018118D01*
X035874Y017960D02*
X038941Y017960D01*
X038950Y018118D02*
X038790Y018118D01*
X038926Y017801D02*
X035889Y017801D01*
X035889Y017643D02*
X038926Y017643D01*
X038987Y017484D02*
X035827Y017484D01*
X035739Y017325D02*
X039075Y017325D01*
X039234Y017167D02*
X035581Y017167D01*
X035188Y017008D02*
X041426Y017008D01*
X041426Y016850D02*
X035029Y016850D01*
X034871Y016691D02*
X041426Y016691D01*
X041426Y016533D02*
X034712Y016533D01*
X034554Y016374D02*
X041426Y016374D01*
X041426Y016216D02*
X040018Y016216D01*
X040072Y016194D02*
X039803Y016305D01*
X039512Y016305D01*
X039243Y016194D01*
X039037Y015988D01*
X038926Y015719D01*
X038926Y015428D01*
X039037Y015159D01*
X039243Y014953D01*
X039512Y014842D01*
X039803Y014842D01*
X040072Y014953D01*
X040277Y015159D01*
X040389Y015428D01*
X040389Y015719D01*
X040277Y015988D01*
X040072Y016194D01*
X040208Y016057D02*
X041426Y016057D01*
X041426Y015899D02*
X040314Y015899D01*
X040380Y015740D02*
X041426Y015740D01*
X041426Y015581D02*
X040389Y015581D01*
X040387Y015423D02*
X041426Y015423D01*
X041426Y015264D02*
X040321Y015264D01*
X040224Y015106D02*
X041426Y015106D01*
X041426Y014947D02*
X040057Y014947D01*
X039257Y014947D02*
X035557Y014947D01*
X035572Y014953D02*
X035777Y015159D01*
X035889Y015428D01*
X035889Y015719D01*
X035777Y015988D01*
X035572Y016194D01*
X035303Y016305D01*
X035012Y016305D01*
X034743Y016194D01*
X034537Y015988D01*
X034426Y015719D01*
X034426Y015428D01*
X034537Y015159D01*
X034743Y014953D01*
X035012Y014842D01*
X035303Y014842D01*
X035572Y014953D01*
X035724Y015106D02*
X039090Y015106D01*
X038994Y015264D02*
X035821Y015264D01*
X035887Y015423D02*
X038928Y015423D01*
X038926Y015581D02*
X035889Y015581D01*
X035880Y015740D02*
X038935Y015740D01*
X039000Y015899D02*
X035814Y015899D01*
X035708Y016057D02*
X039107Y016057D01*
X039296Y016216D02*
X035518Y016216D01*
X034796Y016216D02*
X034396Y016216D01*
X034396Y016057D02*
X034607Y016057D01*
X034500Y015899D02*
X034396Y015899D01*
X034396Y015740D02*
X034435Y015740D01*
X034426Y015581D02*
X034396Y015581D01*
X034396Y015423D02*
X034428Y015423D01*
X034396Y015264D02*
X034494Y015264D01*
X034590Y015106D02*
X034396Y015106D01*
X034396Y014947D02*
X034757Y014947D01*
X034396Y014789D02*
X041426Y014789D01*
X041426Y014630D02*
X034396Y014630D01*
X034396Y014472D02*
X041426Y014472D01*
X041426Y014313D02*
X034396Y014313D01*
X034396Y014155D02*
X041426Y014155D01*
X041426Y013996D02*
X034396Y013996D01*
X034396Y013838D02*
X041426Y013838D01*
X041426Y013679D02*
X034396Y013679D01*
X034396Y013520D02*
X041426Y013520D01*
X041426Y013362D02*
X034396Y013362D01*
X034396Y013203D02*
X041426Y013203D01*
X041426Y013045D02*
X034396Y013045D01*
X034396Y012886D02*
X041426Y012886D01*
X041426Y012728D02*
X034396Y012728D01*
X034396Y012569D02*
X041426Y012569D01*
X041426Y012411D02*
X034396Y012411D01*
X034396Y012252D02*
X041426Y012252D01*
X041426Y012094D02*
X034396Y012094D01*
X034396Y011935D02*
X041426Y011935D01*
X041426Y011776D02*
X039146Y011776D01*
X039075Y011847D02*
X038887Y011925D01*
X038684Y011925D01*
X038497Y011847D01*
X038424Y011775D01*
X036937Y011775D01*
X036771Y011610D01*
X036060Y011610D01*
X035964Y011706D01*
X035208Y011706D01*
X035090Y011589D01*
X035090Y010911D01*
X035110Y010891D01*
X035110Y010628D01*
X035537Y010628D01*
X035537Y010532D01*
X035110Y010532D01*
X035110Y010250D01*
X035216Y010145D01*
X035538Y010145D01*
X035538Y010532D01*
X035634Y010532D01*
X035634Y010628D01*
X036061Y010628D01*
X036061Y010890D01*
X036771Y010890D01*
X037069Y010890D01*
X037235Y011055D01*
X038424Y011055D01*
X038497Y010983D01*
X038684Y010905D01*
X038887Y010905D01*
X039075Y010983D01*
X039218Y011126D01*
X039296Y011314D01*
X039296Y011517D01*
X039218Y011704D01*
X039075Y011847D01*
X039254Y011618D02*
X041426Y011618D01*
X041426Y011459D02*
X039296Y011459D01*
X039290Y011301D02*
X041426Y011301D01*
X041426Y011142D02*
X039225Y011142D01*
X039076Y010984D02*
X041426Y010984D01*
X041426Y010825D02*
X039068Y010825D01*
X038989Y010905D02*
X039276Y010618D01*
X039276Y010415D01*
X038786Y010415D01*
X038786Y010415D01*
X039276Y010415D01*
X039276Y010212D01*
X038989Y009925D01*
X038786Y009925D01*
X038786Y010415D01*
X038785Y010415D01*
X038296Y010415D01*
X038296Y010212D01*
X038583Y009925D01*
X038785Y009925D01*
X038785Y010415D01*
X038785Y010415D01*
X038296Y010415D01*
X038296Y010618D01*
X038583Y010905D01*
X038785Y010905D01*
X038785Y010416D01*
X038786Y010416D01*
X038786Y010905D01*
X038989Y010905D01*
X038786Y010825D02*
X038785Y010825D01*
X038785Y010667D02*
X038786Y010667D01*
X038785Y010508D02*
X038786Y010508D01*
X038785Y010350D02*
X038786Y010350D01*
X038785Y010191D02*
X038786Y010191D01*
X038785Y010032D02*
X038786Y010032D01*
X039096Y010032D02*
X041426Y010032D01*
X041426Y009874D02*
X034396Y009874D01*
X034396Y010032D02*
X038475Y010032D01*
X038317Y010191D02*
X036002Y010191D01*
X035955Y010145D02*
X036061Y010250D01*
X036061Y010532D01*
X035634Y010532D01*
X035634Y010145D01*
X035955Y010145D01*
X036061Y010350D02*
X038296Y010350D01*
X038296Y010508D02*
X036061Y010508D01*
X036061Y010667D02*
X038344Y010667D01*
X038503Y010825D02*
X036061Y010825D01*
X035634Y010508D02*
X035538Y010508D01*
X035538Y010350D02*
X035634Y010350D01*
X035634Y010191D02*
X035538Y010191D01*
X035169Y010191D02*
X034396Y010191D01*
X034396Y010350D02*
X035110Y010350D01*
X035110Y010508D02*
X034396Y010508D01*
X034396Y010667D02*
X035110Y010667D01*
X035110Y010825D02*
X034396Y010825D01*
X034396Y010984D02*
X035090Y010984D01*
X035090Y011142D02*
X034396Y011142D01*
X034396Y011301D02*
X035090Y011301D01*
X035090Y011459D02*
X034396Y011459D01*
X034396Y011618D02*
X035120Y011618D01*
X034396Y011776D02*
X038426Y011776D01*
X036779Y011618D02*
X036051Y011618D01*
X037163Y010984D02*
X038496Y010984D01*
X039227Y010667D02*
X041426Y010667D01*
X041426Y010508D02*
X039276Y010508D01*
X039276Y010350D02*
X041426Y010350D01*
X041426Y010191D02*
X039254Y010191D01*
X041426Y009715D02*
X034396Y009715D01*
X034396Y009557D02*
X041426Y009557D01*
X041426Y009398D02*
X034396Y009398D01*
X034396Y009240D02*
X041426Y009240D01*
X041426Y009081D02*
X034396Y009081D01*
X034352Y008923D02*
X041426Y008923D01*
X041426Y008764D02*
X034194Y008764D01*
X034185Y008755D02*
X034185Y008755D01*
X034035Y008606D02*
X041426Y008606D01*
X041426Y008447D02*
X033877Y008447D01*
X033668Y008289D02*
X041426Y008289D01*
X041426Y008130D02*
X039639Y008130D01*
X039554Y008165D02*
X039077Y008165D01*
X038636Y007982D01*
X038298Y007645D01*
X038116Y007204D01*
X038116Y006726D01*
X038298Y006285D01*
X038636Y005948D01*
X039077Y005765D01*
X039554Y005765D01*
X039995Y005948D01*
X040333Y006285D01*
X040436Y006535D01*
X040436Y006355D01*
X040451Y006319D01*
X040436Y006284D01*
X040436Y006040D01*
X040451Y006004D01*
X040436Y005969D01*
X040436Y005725D01*
X040530Y005499D01*
X040703Y005326D01*
X040929Y005232D01*
X041173Y005232D01*
X041399Y005326D01*
X041572Y005499D01*
X041666Y005725D01*
X041666Y005969D01*
X041651Y006004D01*
X041666Y006040D01*
X041666Y006284D01*
X041651Y006319D01*
X041666Y006355D01*
X041666Y006599D01*
X041572Y006825D01*
X041399Y006998D01*
X041173Y007092D01*
X040929Y007092D01*
X040703Y006998D01*
X040530Y006825D01*
X040516Y006790D01*
X040516Y007204D01*
X040333Y007645D01*
X039995Y007982D01*
X039554Y008165D01*
X040006Y007971D02*
X041570Y007971D01*
X041678Y007813D02*
X040165Y007813D01*
X040323Y007654D02*
X041678Y007654D01*
X041725Y007496D02*
X040395Y007496D01*
X040460Y007337D02*
X041815Y007337D01*
X042004Y007179D02*
X040516Y007179D01*
X040516Y007020D02*
X040756Y007020D01*
X040566Y006862D02*
X040516Y006862D01*
X040436Y006386D02*
X040375Y006386D01*
X040436Y006227D02*
X040275Y006227D01*
X040116Y006069D02*
X040436Y006069D01*
X040436Y005910D02*
X039905Y005910D01*
X040436Y005752D02*
X036286Y005752D01*
X036286Y005910D02*
X038726Y005910D01*
X038515Y006069D02*
X036317Y006069D01*
X036475Y006227D02*
X038356Y006227D01*
X038257Y006386D02*
X036506Y006386D01*
X036506Y006545D02*
X038191Y006545D01*
X038125Y006703D02*
X036475Y006703D01*
X036316Y006862D02*
X038116Y006862D01*
X038116Y007020D02*
X036808Y007020D01*
X036753Y006965D02*
X037046Y007258D01*
X037046Y007672D01*
X036753Y007965D01*
X036339Y007965D01*
X036046Y007672D01*
X036046Y007258D01*
X036339Y006965D01*
X036753Y006965D01*
X036966Y007179D02*
X038116Y007179D01*
X038171Y007337D02*
X037046Y007337D01*
X037046Y007496D02*
X038237Y007496D01*
X038308Y007654D02*
X037046Y007654D01*
X036905Y007813D02*
X038466Y007813D01*
X038625Y007971D02*
X033646Y007971D01*
X033646Y008130D02*
X038992Y008130D01*
X041346Y007020D02*
X044868Y007020D01*
X044827Y007179D02*
X042618Y007179D01*
X042807Y007337D02*
X044827Y007337D01*
X044879Y007496D02*
X042896Y007496D01*
X042944Y007654D02*
X044975Y007654D01*
X045178Y007813D02*
X042944Y007813D01*
X042899Y007971D02*
X045626Y007971D01*
X045626Y008130D02*
X042813Y008130D01*
X042633Y008289D02*
X045626Y008289D01*
X045626Y008447D02*
X042146Y008447D01*
X042146Y008606D02*
X045626Y008606D01*
X045626Y008764D02*
X042146Y008764D01*
X042146Y008923D02*
X045626Y008923D01*
X045626Y009081D02*
X042146Y009081D01*
X042146Y009240D02*
X045626Y009240D01*
X045626Y009398D02*
X042146Y009398D01*
X042146Y009557D02*
X045626Y009557D01*
X045626Y009715D02*
X042146Y009715D01*
X042146Y009874D02*
X045626Y009874D01*
X045626Y010032D02*
X045296Y010032D01*
X045189Y009925D02*
X045476Y010212D01*
X045476Y010415D01*
X044986Y010415D01*
X044986Y010415D01*
X045476Y010415D01*
X045476Y010618D01*
X045189Y010905D01*
X044986Y010905D01*
X044986Y010416D01*
X044985Y010416D01*
X044985Y010905D01*
X044783Y010905D01*
X044496Y010618D01*
X044496Y010415D01*
X044496Y010212D01*
X044783Y009925D01*
X044985Y009925D01*
X044985Y010415D01*
X044496Y010415D01*
X044985Y010415D01*
X044985Y010415D01*
X044986Y010415D01*
X044986Y009925D01*
X045189Y009925D01*
X044986Y010032D02*
X044985Y010032D01*
X044985Y010191D02*
X044986Y010191D01*
X044985Y010350D02*
X044986Y010350D01*
X044985Y010508D02*
X044986Y010508D01*
X044985Y010667D02*
X044986Y010667D01*
X044985Y010825D02*
X044986Y010825D01*
X045087Y010905D02*
X045275Y010983D01*
X045418Y011126D01*
X045496Y011314D01*
X045496Y011517D01*
X045418Y011704D01*
X045275Y011847D01*
X045087Y011925D01*
X044884Y011925D01*
X044764Y011875D01*
X044637Y011875D01*
X044037Y011875D01*
X043826Y011664D01*
X043815Y011654D01*
X043764Y011706D01*
X043008Y011706D01*
X042890Y011589D01*
X042890Y010911D01*
X042910Y010891D01*
X042910Y010628D01*
X043337Y010628D01*
X043337Y010532D01*
X042910Y010532D01*
X042910Y010250D01*
X043016Y010145D01*
X043338Y010145D01*
X043338Y010532D01*
X043434Y010532D01*
X043434Y010628D01*
X043861Y010628D01*
X043861Y010890D01*
X044069Y010890D01*
X044335Y011155D01*
X044541Y011155D01*
X044553Y011126D01*
X044697Y010983D01*
X044884Y010905D01*
X045087Y010905D01*
X045268Y010825D02*
X045626Y010825D01*
X045626Y010667D02*
X045427Y010667D01*
X045476Y010508D02*
X045626Y010508D01*
X045626Y010350D02*
X045476Y010350D01*
X045454Y010191D02*
X045626Y010191D01*
X044675Y010032D02*
X042146Y010032D01*
X042146Y010191D02*
X042969Y010191D01*
X042910Y010350D02*
X042146Y010350D01*
X042146Y010508D02*
X042910Y010508D01*
X042910Y010667D02*
X042146Y010667D01*
X042146Y010825D02*
X042910Y010825D01*
X042890Y010984D02*
X042146Y010984D01*
X042146Y011142D02*
X042890Y011142D01*
X042890Y011301D02*
X042146Y011301D01*
X042146Y011459D02*
X042890Y011459D01*
X042920Y011618D02*
X042146Y011618D01*
X042146Y011776D02*
X043938Y011776D01*
X044322Y011142D02*
X044547Y011142D01*
X044696Y010984D02*
X044163Y010984D01*
X043861Y010825D02*
X044703Y010825D01*
X044544Y010667D02*
X043861Y010667D01*
X043861Y010532D02*
X043434Y010532D01*
X043434Y010145D01*
X043755Y010145D01*
X043861Y010250D01*
X043861Y010532D01*
X043861Y010508D02*
X044496Y010508D01*
X044496Y010350D02*
X043861Y010350D01*
X043802Y010191D02*
X044517Y010191D01*
X043434Y010191D02*
X043338Y010191D01*
X043338Y010350D02*
X043434Y010350D01*
X043434Y010508D02*
X043338Y010508D01*
X045276Y010984D02*
X045626Y010984D01*
X045626Y011142D02*
X045425Y011142D01*
X045490Y011301D02*
X045626Y011301D01*
X045626Y011459D02*
X045496Y011459D01*
X045454Y011618D02*
X045626Y011618D01*
X045626Y011776D02*
X045346Y011776D01*
X045626Y011935D02*
X042146Y011935D01*
X042146Y012094D02*
X045626Y012094D01*
X045626Y012252D02*
X042146Y012252D01*
X042146Y012411D02*
X045626Y012411D01*
X045626Y012569D02*
X042146Y012569D01*
X042146Y012728D02*
X045626Y012728D01*
X045626Y012886D02*
X042146Y012886D01*
X042146Y013045D02*
X045626Y013045D01*
X045626Y013203D02*
X042146Y013203D01*
X042146Y013362D02*
X045626Y013362D01*
X045626Y013520D02*
X042146Y013520D01*
X042146Y013679D02*
X045626Y013679D01*
X045626Y013838D02*
X042146Y013838D01*
X042146Y013996D02*
X045626Y013996D01*
X045626Y014155D02*
X042146Y014155D01*
X042146Y014313D02*
X045626Y014313D01*
X045626Y014472D02*
X042146Y014472D01*
X042146Y014630D02*
X045626Y014630D01*
X045626Y014789D02*
X042146Y014789D01*
X042146Y014947D02*
X043757Y014947D01*
X043743Y014953D02*
X044012Y014842D01*
X044303Y014842D01*
X044572Y014953D01*
X044777Y015159D01*
X044889Y015428D01*
X044889Y015719D01*
X044777Y015988D01*
X044572Y016194D01*
X044303Y016305D01*
X044012Y016305D01*
X043743Y016194D01*
X043537Y015988D01*
X043426Y015719D01*
X043426Y015428D01*
X043537Y015159D01*
X043743Y014953D01*
X043590Y015106D02*
X042146Y015106D01*
X042146Y015264D02*
X043494Y015264D01*
X043428Y015423D02*
X042146Y015423D01*
X042146Y015581D02*
X043426Y015581D01*
X043435Y015740D02*
X042146Y015740D01*
X042146Y015899D02*
X043500Y015899D01*
X043607Y016057D02*
X042146Y016057D01*
X042146Y016216D02*
X043796Y016216D01*
X044518Y016216D02*
X045626Y016216D01*
X045626Y016374D02*
X042146Y016374D01*
X042146Y016533D02*
X045626Y016533D01*
X045626Y016691D02*
X042146Y016691D01*
X042146Y016850D02*
X045626Y016850D01*
X045626Y017008D02*
X042146Y017008D01*
X042146Y017167D02*
X043734Y017167D01*
X043575Y017325D02*
X042146Y017325D01*
X042126Y017484D02*
X043487Y017484D01*
X043426Y017643D02*
X041967Y017643D01*
X041809Y017801D02*
X043426Y017801D01*
X043441Y017960D02*
X041650Y017960D01*
X041492Y018118D02*
X043018Y018118D01*
X043290Y018118D02*
X043450Y018118D01*
X043450Y018277D02*
X043290Y018277D01*
X043290Y018435D02*
X043450Y018435D01*
X043450Y018594D02*
X043290Y018594D01*
X043290Y018752D02*
X038950Y018752D01*
X040239Y017325D02*
X041266Y017325D01*
X041425Y017167D02*
X040081Y017167D01*
X043450Y018752D02*
X047790Y018752D01*
X047950Y018752D02*
X052290Y018752D01*
X052290Y018594D02*
X052450Y018594D01*
X052450Y018752D02*
X056162Y018752D01*
X056111Y018594D02*
X053078Y018594D01*
X053070Y018911D02*
X056228Y018911D01*
X056293Y019069D02*
X053005Y019069D01*
X052891Y019228D02*
X056371Y019228D01*
X056530Y019387D02*
X052675Y019387D01*
X052065Y019387D02*
X048175Y019387D01*
X048391Y019228D02*
X051849Y019228D01*
X051735Y019069D02*
X048505Y019069D01*
X048570Y018911D02*
X051669Y018911D01*
X051661Y018594D02*
X048578Y018594D01*
X048982Y018435D02*
X051727Y018435D01*
X051830Y018277D02*
X049193Y018277D01*
X049308Y018118D02*
X052018Y018118D01*
X052290Y018118D02*
X052450Y018118D01*
X052441Y017960D02*
X049374Y017960D01*
X049389Y017801D02*
X052426Y017801D01*
X052426Y017643D02*
X049389Y017643D01*
X049327Y017484D02*
X052487Y017484D01*
X052575Y017325D02*
X049239Y017325D01*
X049081Y017167D02*
X052734Y017167D01*
X053581Y017167D02*
X056606Y017167D01*
X056448Y017325D02*
X053739Y017325D01*
X053827Y017484D02*
X056325Y017484D01*
X056259Y017643D02*
X053889Y017643D01*
X053889Y017801D02*
X056194Y017801D01*
X056128Y017960D02*
X053874Y017960D01*
X053808Y018118D02*
X056111Y018118D01*
X056111Y018277D02*
X053693Y018277D01*
X053482Y018435D02*
X056111Y018435D01*
X056765Y017008D02*
X047488Y017008D01*
X047446Y016850D02*
X057107Y016850D01*
X058264Y016850D02*
X058781Y016850D01*
X058781Y017008D02*
X058606Y017008D01*
X058765Y017167D02*
X058781Y017167D01*
X058781Y016691D02*
X047446Y016691D01*
X047446Y016533D02*
X058781Y016533D01*
X058781Y016374D02*
X047446Y016374D01*
X047446Y016216D02*
X048296Y016216D01*
X048243Y016194D02*
X048037Y015988D01*
X047926Y015719D01*
X047926Y015428D01*
X048037Y015159D01*
X048243Y014953D01*
X048512Y014842D01*
X048803Y014842D01*
X049072Y014953D01*
X049277Y015159D01*
X049389Y015428D01*
X049389Y015719D01*
X049277Y015988D01*
X049072Y016194D01*
X048803Y016305D01*
X048512Y016305D01*
X048243Y016194D01*
X048107Y016057D02*
X047446Y016057D01*
X047446Y015899D02*
X048000Y015899D01*
X047935Y015740D02*
X047446Y015740D01*
X047446Y015581D02*
X047926Y015581D01*
X047928Y015423D02*
X047446Y015423D01*
X047446Y015264D02*
X047994Y015264D01*
X048090Y015106D02*
X047446Y015106D01*
X047446Y014947D02*
X048257Y014947D01*
X049057Y014947D02*
X052757Y014947D01*
X052743Y014953D02*
X053012Y014842D01*
X053303Y014842D01*
X053572Y014953D01*
X053777Y015159D01*
X053889Y015428D01*
X053889Y015719D01*
X053777Y015988D01*
X053572Y016194D01*
X053303Y016305D01*
X053012Y016305D01*
X052743Y016194D01*
X052537Y015988D01*
X052426Y015719D01*
X052426Y015428D01*
X052537Y015159D01*
X052743Y014953D01*
X052590Y015106D02*
X049224Y015106D01*
X049321Y015264D02*
X052494Y015264D01*
X052428Y015423D02*
X049387Y015423D01*
X049389Y015581D02*
X052426Y015581D01*
X052435Y015740D02*
X049380Y015740D01*
X049314Y015899D02*
X052500Y015899D01*
X052607Y016057D02*
X049208Y016057D01*
X049018Y016216D02*
X052796Y016216D01*
X053518Y016216D02*
X058781Y016216D01*
X058781Y016057D02*
X053708Y016057D01*
X053814Y015899D02*
X058781Y015899D01*
X058781Y015740D02*
X053880Y015740D01*
X053889Y015581D02*
X058781Y015581D01*
X058781Y015423D02*
X053887Y015423D01*
X053821Y015264D02*
X058781Y015264D01*
X058781Y015106D02*
X053724Y015106D01*
X053557Y014947D02*
X058781Y014947D01*
X058781Y014789D02*
X047446Y014789D01*
X047446Y014630D02*
X058781Y014630D01*
X058781Y014472D02*
X047446Y014472D01*
X047446Y014313D02*
X058781Y014313D01*
X058781Y014155D02*
X047446Y014155D01*
X047446Y013996D02*
X058781Y013996D01*
X058781Y013838D02*
X047446Y013838D01*
X047446Y013679D02*
X058781Y013679D01*
X058781Y013520D02*
X047446Y013520D01*
X047446Y013362D02*
X058781Y013362D01*
X058781Y013203D02*
X047446Y013203D01*
X047446Y013045D02*
X058781Y013045D01*
X058781Y012886D02*
X047446Y012886D01*
X047446Y012728D02*
X058781Y012728D01*
X058781Y012569D02*
X047446Y012569D01*
X047446Y012411D02*
X058781Y012411D01*
X058781Y012252D02*
X057199Y012252D01*
X057076Y012375D02*
X056695Y012375D01*
X056426Y012106D01*
X056426Y011725D01*
X056695Y011455D01*
X057076Y011455D01*
X057346Y011725D01*
X057346Y012106D01*
X057076Y012375D01*
X057346Y012094D02*
X058781Y012094D01*
X058781Y011935D02*
X057346Y011935D01*
X057346Y011776D02*
X058781Y011776D01*
X058781Y011618D02*
X057239Y011618D01*
X057080Y011459D02*
X058781Y011459D01*
X058781Y011301D02*
X050490Y011301D01*
X050496Y011459D02*
X052691Y011459D01*
X052695Y011455D02*
X053076Y011455D01*
X053346Y011725D01*
X053346Y012106D01*
X053076Y012375D01*
X052695Y012375D01*
X052426Y012106D01*
X052426Y011725D01*
X052695Y011455D01*
X052532Y011618D02*
X050454Y011618D01*
X050346Y011776D02*
X052426Y011776D01*
X052426Y011935D02*
X047446Y011935D01*
X047446Y012094D02*
X052426Y012094D01*
X052572Y012252D02*
X047446Y012252D01*
X047446Y011776D02*
X049626Y011776D01*
X049518Y011618D02*
X047446Y011618D01*
X047446Y011459D02*
X049476Y011459D01*
X049481Y011301D02*
X047446Y011301D01*
X047446Y011142D02*
X049547Y011142D01*
X049696Y010984D02*
X047446Y010984D01*
X047446Y010825D02*
X049703Y010825D01*
X049544Y010667D02*
X047446Y010667D01*
X047446Y010508D02*
X049496Y010508D01*
X049496Y010350D02*
X047446Y010350D01*
X047446Y010191D02*
X049517Y010191D01*
X050276Y010984D02*
X058781Y010984D01*
X058781Y011142D02*
X050425Y011142D01*
X053080Y011459D02*
X056691Y011459D01*
X056532Y011618D02*
X053239Y011618D01*
X053346Y011776D02*
X056426Y011776D01*
X056426Y011935D02*
X053346Y011935D01*
X053346Y012094D02*
X056426Y012094D01*
X056572Y012252D02*
X053199Y012252D01*
X057446Y008997D02*
X057703Y009255D01*
X057885Y009255D01*
X057885Y008816D01*
X057886Y008816D01*
X057886Y009255D01*
X058068Y009255D01*
X058326Y008997D01*
X058326Y008815D01*
X057886Y008815D01*
X057886Y008815D01*
X058326Y008815D01*
X058326Y008633D01*
X058068Y008375D01*
X057886Y008375D01*
X057886Y008815D01*
X057885Y008815D01*
X057446Y008815D01*
X057446Y008633D01*
X057703Y008375D01*
X057885Y008375D01*
X057885Y008815D01*
X057885Y008815D01*
X057446Y008815D01*
X057446Y008997D01*
X057446Y008923D02*
X057346Y008923D01*
X057346Y008764D02*
X057446Y008764D01*
X057473Y008606D02*
X057327Y008606D01*
X057168Y008447D02*
X057631Y008447D01*
X057885Y008447D02*
X057886Y008447D01*
X057885Y008606D02*
X057886Y008606D01*
X057885Y008764D02*
X057886Y008764D01*
X057885Y008923D02*
X057886Y008923D01*
X057885Y009081D02*
X057886Y009081D01*
X057885Y009240D02*
X057886Y009240D01*
X058083Y009240D02*
X058781Y009240D01*
X058781Y009081D02*
X058242Y009081D01*
X058326Y008923D02*
X058781Y008923D01*
X058781Y008764D02*
X058326Y008764D01*
X058298Y008606D02*
X058781Y008606D01*
X058781Y008447D02*
X058140Y008447D01*
X058781Y008289D02*
X050383Y008289D01*
X050563Y008130D02*
X058781Y008130D01*
X058781Y007971D02*
X050649Y007971D01*
X050694Y007813D02*
X052928Y007813D01*
X052725Y007654D02*
X050694Y007654D01*
X050646Y007496D02*
X052629Y007496D01*
X052577Y007337D02*
X050557Y007337D01*
X050368Y007179D02*
X052577Y007179D01*
X052618Y007020D02*
X050316Y007020D01*
X050316Y006862D02*
X052698Y006862D01*
X052864Y006703D02*
X050316Y006703D01*
X050316Y006545D02*
X051433Y006545D01*
X051514Y006578D02*
X051288Y006485D01*
X051116Y006312D01*
X051023Y006087D01*
X051023Y006003D01*
X051597Y006003D01*
X051597Y005927D01*
X051023Y005927D01*
X051023Y005843D01*
X051116Y005618D01*
X051288Y005445D01*
X051514Y005352D01*
X051597Y005352D01*
X051597Y005927D01*
X051674Y005927D01*
X051674Y006003D01*
X052249Y006003D01*
X052249Y006087D01*
X052155Y006312D01*
X051983Y006485D01*
X051758Y006578D01*
X051674Y006578D01*
X051674Y006003D01*
X051597Y006003D01*
X051597Y006578D01*
X051514Y006578D01*
X051597Y006545D02*
X051674Y006545D01*
X051674Y006386D02*
X051597Y006386D01*
X051597Y006227D02*
X051674Y006227D01*
X051674Y006069D02*
X051597Y006069D01*
X051597Y005910D02*
X051674Y005910D01*
X051674Y005927D02*
X051674Y005352D01*
X051758Y005352D01*
X051983Y005445D01*
X052155Y005618D01*
X052249Y005843D01*
X052249Y005927D01*
X051674Y005927D01*
X051674Y005752D02*
X051597Y005752D01*
X051597Y005593D02*
X051674Y005593D01*
X051674Y005435D02*
X051597Y005435D01*
X051314Y005435D02*
X050316Y005435D01*
X050316Y005593D02*
X051141Y005593D01*
X051060Y005752D02*
X050316Y005752D01*
X050316Y005910D02*
X051023Y005910D01*
X051023Y006069D02*
X050316Y006069D01*
X050316Y006227D02*
X051081Y006227D01*
X051190Y006386D02*
X050316Y006386D01*
X049756Y006386D02*
X049416Y006386D01*
X049416Y006355D02*
X049416Y006599D01*
X049322Y006825D01*
X049149Y006998D01*
X048923Y007092D01*
X048679Y007092D01*
X048453Y006998D01*
X048280Y006825D01*
X048186Y006599D01*
X048186Y006355D01*
X048201Y006319D01*
X048186Y006284D01*
X048186Y006040D01*
X048201Y006004D01*
X048186Y005969D01*
X048186Y005725D01*
X048280Y005499D01*
X048453Y005326D01*
X048679Y005232D01*
X048923Y005232D01*
X049149Y005326D01*
X049322Y005499D01*
X049416Y005725D01*
X049416Y005969D01*
X049401Y006004D01*
X049416Y006040D01*
X049416Y006284D01*
X049401Y006319D01*
X049416Y006355D01*
X049416Y006227D02*
X049756Y006227D01*
X049756Y006069D02*
X049416Y006069D01*
X049416Y005910D02*
X049756Y005910D01*
X049756Y005752D02*
X049416Y005752D01*
X049361Y005593D02*
X049756Y005593D01*
X049659Y005435D02*
X049258Y005435D01*
X049029Y005276D02*
X049501Y005276D01*
X049342Y005118D02*
X045634Y005118D01*
X045740Y005276D02*
X046492Y005276D01*
X046598Y005232D02*
X046843Y005232D01*
X047068Y005326D01*
X047241Y005499D01*
X047335Y005725D01*
X047335Y005969D01*
X047320Y006004D01*
X047335Y006040D01*
X047335Y006284D01*
X047320Y006319D01*
X047335Y006355D01*
X047335Y006599D01*
X047241Y006825D01*
X047068Y006998D01*
X046843Y007092D01*
X046598Y007092D01*
X046372Y006998D01*
X046199Y006825D01*
X046106Y006599D01*
X046106Y006355D01*
X046120Y006319D01*
X046106Y006284D01*
X046106Y006040D01*
X046120Y006004D01*
X046106Y005969D01*
X046106Y005725D01*
X046199Y005499D01*
X046372Y005326D01*
X046598Y005232D01*
X046948Y005276D02*
X048573Y005276D01*
X048344Y005435D02*
X047177Y005435D01*
X047280Y005593D02*
X048241Y005593D01*
X048186Y005752D02*
X047335Y005752D01*
X047335Y005910D02*
X048186Y005910D01*
X048186Y006069D02*
X047335Y006069D01*
X047335Y006227D02*
X048186Y006227D01*
X048186Y006386D02*
X047335Y006386D01*
X047335Y006545D02*
X048186Y006545D01*
X048229Y006703D02*
X047292Y006703D01*
X047205Y006862D02*
X048316Y006862D01*
X048506Y007020D02*
X047015Y007020D01*
X046426Y007020D02*
X046053Y007020D01*
X046094Y007179D02*
X049754Y007179D01*
X049756Y007020D02*
X049096Y007020D01*
X049286Y006862D02*
X049756Y006862D01*
X049756Y006703D02*
X049373Y006703D01*
X049416Y006545D02*
X049756Y006545D01*
X049565Y007337D02*
X046094Y007337D01*
X046221Y007496D02*
X048096Y007496D01*
X047937Y007654D02*
X046346Y007654D01*
X045460Y007245D02*
X045460Y005340D01*
X045036Y004915D01*
X036686Y004915D01*
X036006Y005595D01*
X036006Y006465D01*
X035695Y006862D02*
X035236Y006862D01*
X035259Y006965D02*
X035673Y006965D01*
X035966Y007258D01*
X035966Y007672D01*
X035673Y007965D01*
X035259Y007965D01*
X034966Y007672D01*
X034966Y007258D01*
X035259Y006965D01*
X035204Y007020D02*
X034648Y007020D01*
X034593Y006965D02*
X034886Y007258D01*
X034886Y007672D01*
X034593Y007965D01*
X034179Y007965D01*
X033886Y007672D01*
X033886Y007258D01*
X034179Y006965D01*
X034593Y006965D01*
X034615Y006862D02*
X034156Y006862D01*
X034124Y007020D02*
X033568Y007020D01*
X033535Y006862D02*
X033048Y006862D01*
X032964Y006945D02*
X033246Y006664D01*
X033246Y006485D01*
X032786Y006485D01*
X032786Y006445D01*
X033246Y006445D01*
X033246Y006266D01*
X032964Y005985D01*
X032786Y005985D01*
X032786Y006445D01*
X032746Y006445D01*
X032746Y005985D01*
X032567Y005985D01*
X032286Y006266D01*
X032286Y006445D01*
X032745Y006445D01*
X032745Y006485D01*
X032286Y006485D01*
X032286Y006664D01*
X032567Y006945D01*
X032746Y006945D01*
X032746Y006485D01*
X032786Y006485D01*
X032786Y006945D01*
X032964Y006945D01*
X033044Y007020D02*
X032488Y007020D01*
X032433Y006965D02*
X032726Y007258D01*
X032726Y007672D01*
X032433Y007965D01*
X032019Y007965D01*
X031726Y007672D01*
X031726Y007258D01*
X032019Y006965D01*
X032433Y006965D01*
X032483Y006862D02*
X030656Y006862D01*
X030656Y006726D02*
X030656Y007204D01*
X030473Y007645D01*
X030135Y007982D01*
X029694Y008165D01*
X029217Y008165D01*
X028776Y007982D01*
X028438Y007645D01*
X028256Y007204D01*
X028256Y006726D01*
X028438Y006285D01*
X028776Y005948D01*
X029217Y005765D01*
X029694Y005765D01*
X030135Y005948D01*
X030473Y006285D01*
X030656Y006726D01*
X030646Y006703D02*
X032325Y006703D01*
X032286Y006545D02*
X030580Y006545D01*
X030515Y006386D02*
X032286Y006386D01*
X032325Y006227D02*
X030415Y006227D01*
X030256Y006069D02*
X032483Y006069D01*
X032746Y006069D02*
X032786Y006069D01*
X032786Y006227D02*
X032746Y006227D01*
X032746Y006386D02*
X032786Y006386D01*
X032786Y006545D02*
X032746Y006545D01*
X032746Y006703D02*
X032786Y006703D01*
X032786Y006862D02*
X032746Y006862D01*
X032646Y007179D02*
X032885Y007179D01*
X032806Y007337D02*
X032726Y007337D01*
X032726Y007496D02*
X032806Y007496D01*
X032806Y007654D02*
X032726Y007654D01*
X032585Y007813D02*
X032926Y007813D01*
X032926Y007971D02*
X030146Y007971D01*
X030305Y007813D02*
X031866Y007813D01*
X031726Y007654D02*
X030463Y007654D01*
X030535Y007496D02*
X031726Y007496D01*
X031726Y007337D02*
X030600Y007337D01*
X030656Y007179D02*
X031805Y007179D01*
X031964Y007020D02*
X030656Y007020D01*
X028765Y007971D02*
X028351Y007971D01*
X028346Y007966D02*
X028346Y007966D01*
X028193Y007813D02*
X028606Y007813D01*
X028448Y007654D02*
X025884Y007654D01*
X025725Y007496D02*
X028377Y007496D01*
X028311Y007337D02*
X025594Y007337D01*
X025594Y007179D02*
X028256Y007179D01*
X028256Y007020D02*
X026515Y007020D01*
X026568Y006998D02*
X026343Y007092D01*
X026098Y007092D01*
X025872Y006998D01*
X025699Y006825D01*
X025606Y006599D01*
X025606Y006355D01*
X025620Y006319D01*
X025606Y006284D01*
X025606Y006040D01*
X025620Y006004D01*
X025606Y005969D01*
X025606Y005725D01*
X025699Y005499D01*
X025872Y005326D01*
X026098Y005232D01*
X026343Y005232D01*
X026568Y005326D01*
X026741Y005499D01*
X026835Y005725D01*
X026835Y005969D01*
X026820Y006004D01*
X026835Y006040D01*
X026835Y006284D01*
X026820Y006319D01*
X026835Y006355D01*
X026835Y006599D01*
X026741Y006825D01*
X026568Y006998D01*
X026705Y006862D02*
X028256Y006862D01*
X028265Y006703D02*
X026792Y006703D01*
X026835Y006545D02*
X028331Y006545D01*
X028397Y006386D02*
X026835Y006386D01*
X026835Y006227D02*
X028496Y006227D01*
X028655Y006069D02*
X026835Y006069D01*
X026835Y005910D02*
X028866Y005910D01*
X030045Y005910D02*
X033566Y005910D01*
X033566Y005752D02*
X026835Y005752D01*
X026780Y005593D02*
X033566Y005593D01*
X033566Y005435D02*
X026677Y005435D01*
X026448Y005276D02*
X033566Y005276D01*
X033566Y005118D02*
X012562Y005118D01*
X012573Y005276D02*
X012496Y005276D01*
X012627Y004959D02*
X033566Y004959D01*
X033566Y004801D02*
X012661Y004801D01*
X012661Y004642D02*
X033566Y004642D01*
X033566Y004483D02*
X012661Y004483D01*
X012661Y004325D02*
X033680Y004325D01*
X033838Y004166D02*
X012625Y004166D01*
X012560Y004008D02*
X033997Y004008D01*
X034156Y003849D02*
X012494Y003849D01*
X012428Y003691D02*
X034314Y003691D01*
X034486Y003915D02*
X052386Y003915D01*
X053210Y004740D01*
X053210Y007245D01*
X053792Y007496D02*
X058781Y007496D01*
X058781Y007654D02*
X053696Y007654D01*
X053493Y007813D02*
X058781Y007813D01*
X058781Y007337D02*
X053844Y007337D01*
X053844Y007179D02*
X058781Y007179D01*
X058781Y007020D02*
X054765Y007020D01*
X054818Y006998D02*
X054593Y007092D01*
X054348Y007092D01*
X054122Y006998D01*
X053949Y006825D01*
X053856Y006599D01*
X053856Y006355D01*
X053870Y006319D01*
X053856Y006284D01*
X053856Y006040D01*
X053870Y006004D01*
X053856Y005969D01*
X053856Y005725D01*
X053949Y005499D01*
X054122Y005326D01*
X054348Y005232D01*
X054593Y005232D01*
X054818Y005326D01*
X054991Y005499D01*
X055085Y005725D01*
X055085Y005969D01*
X055070Y006004D01*
X055085Y006040D01*
X055085Y006284D01*
X055070Y006319D01*
X055085Y006355D01*
X055085Y006599D01*
X054991Y006825D01*
X054818Y006998D01*
X054955Y006862D02*
X058781Y006862D01*
X058781Y006703D02*
X055042Y006703D01*
X055085Y006545D02*
X058781Y006545D01*
X058781Y006386D02*
X055085Y006386D01*
X055085Y006227D02*
X058781Y006227D01*
X058781Y006069D02*
X058171Y006069D01*
X058554Y005910D02*
X058781Y005910D01*
X058781Y005752D02*
X058726Y005752D01*
X057201Y006069D02*
X055085Y006069D01*
X055085Y005910D02*
X056818Y005910D01*
X056645Y005752D02*
X055085Y005752D01*
X055030Y005593D02*
X056486Y005593D01*
X056341Y005435D02*
X054927Y005435D01*
X054698Y005276D02*
X056275Y005276D01*
X056210Y005118D02*
X053490Y005118D01*
X053490Y005276D02*
X054242Y005276D01*
X054013Y005435D02*
X053490Y005435D01*
X053490Y005593D02*
X053910Y005593D01*
X053856Y005752D02*
X053490Y005752D01*
X053490Y005910D02*
X053856Y005910D01*
X053856Y006069D02*
X053490Y006069D01*
X053490Y006227D02*
X053856Y006227D01*
X053856Y006386D02*
X053490Y006386D01*
X053490Y006545D02*
X053856Y006545D01*
X053899Y006703D02*
X053557Y006703D01*
X053723Y006862D02*
X053986Y006862D01*
X053803Y007020D02*
X054176Y007020D01*
X052930Y006545D02*
X051839Y006545D01*
X052082Y006386D02*
X052930Y006386D01*
X052930Y006227D02*
X052191Y006227D01*
X052249Y006069D02*
X052930Y006069D01*
X052930Y005910D02*
X052249Y005910D01*
X052211Y005752D02*
X052930Y005752D01*
X052930Y005593D02*
X052131Y005593D01*
X051957Y005435D02*
X052930Y005435D01*
X052930Y005276D02*
X050293Y005276D01*
X050134Y005118D02*
X052930Y005118D01*
X052930Y004959D02*
X049976Y004959D01*
X049817Y004801D02*
X052875Y004801D01*
X052717Y004642D02*
X049658Y004642D01*
X049500Y004483D02*
X052558Y004483D01*
X052400Y004325D02*
X049341Y004325D01*
X048936Y004315D02*
X050036Y005415D01*
X050036Y007665D01*
X050061Y007690D01*
X050061Y007737D01*
X046236Y006862D02*
X045973Y006862D01*
X045807Y006703D02*
X046149Y006703D01*
X046106Y006545D02*
X045740Y006545D01*
X045740Y006386D02*
X046106Y006386D01*
X046106Y006227D02*
X045740Y006227D01*
X045740Y006069D02*
X046106Y006069D01*
X046106Y005910D02*
X045740Y005910D01*
X045740Y005752D02*
X046106Y005752D01*
X046160Y005593D02*
X045740Y005593D01*
X045740Y005435D02*
X046263Y005435D01*
X045476Y004959D02*
X049184Y004959D01*
X049025Y004801D02*
X045317Y004801D01*
X045159Y004642D02*
X048867Y004642D01*
X048936Y004315D02*
X035386Y004315D01*
X034926Y004775D01*
X034926Y006465D01*
X035426Y006386D02*
X035506Y006386D01*
X035506Y006545D02*
X035426Y006545D01*
X035395Y006703D02*
X035537Y006703D01*
X035728Y007020D02*
X036284Y007020D01*
X036125Y007179D02*
X035886Y007179D01*
X035966Y007337D02*
X036046Y007337D01*
X036046Y007496D02*
X035966Y007496D01*
X035966Y007654D02*
X036046Y007654D01*
X036186Y007813D02*
X035825Y007813D01*
X035106Y007813D02*
X034745Y007813D01*
X034886Y007654D02*
X034966Y007654D01*
X034966Y007496D02*
X034886Y007496D01*
X034886Y007337D02*
X034966Y007337D01*
X035045Y007179D02*
X034806Y007179D01*
X034457Y006703D02*
X034315Y006703D01*
X034346Y006545D02*
X034426Y006545D01*
X034426Y006386D02*
X034346Y006386D01*
X034315Y006227D02*
X034456Y006227D01*
X034615Y006069D02*
X034157Y006069D01*
X034126Y005910D02*
X034646Y005910D01*
X034646Y005752D02*
X034126Y005752D01*
X034126Y005593D02*
X034646Y005593D01*
X034646Y005435D02*
X034126Y005435D01*
X034126Y005276D02*
X034646Y005276D01*
X034646Y005118D02*
X034126Y005118D01*
X034126Y004959D02*
X034646Y004959D01*
X034646Y004801D02*
X034126Y004801D01*
X034155Y004642D02*
X034663Y004642D01*
X034821Y004483D02*
X034313Y004483D01*
X034472Y004325D02*
X034980Y004325D01*
X034486Y003915D02*
X033846Y004555D01*
X033846Y006465D01*
X033346Y006386D02*
X033246Y006386D01*
X033246Y006545D02*
X033346Y006545D01*
X033377Y006703D02*
X033206Y006703D01*
X033726Y007179D02*
X033965Y007179D01*
X033886Y007337D02*
X033806Y007337D01*
X033806Y007496D02*
X033886Y007496D01*
X033886Y007654D02*
X033806Y007654D01*
X033665Y007813D02*
X034026Y007813D01*
X032926Y008130D02*
X029779Y008130D01*
X029132Y008130D02*
X028510Y008130D01*
X028668Y008289D02*
X032926Y008289D01*
X033601Y009240D02*
X028619Y009240D01*
X028646Y009398D02*
X033676Y009398D01*
X033676Y009557D02*
X028646Y009557D01*
X028646Y009715D02*
X033676Y009715D01*
X027226Y010255D02*
X027226Y011466D01*
X027071Y011621D01*
X026951Y011501D01*
X027226Y011226D01*
X027226Y011045D01*
X026416Y011045D01*
X026416Y010985D01*
X027226Y010985D01*
X027226Y010804D01*
X026951Y010529D01*
X027226Y010255D01*
X027226Y010350D02*
X027131Y010350D01*
X027226Y010508D02*
X026972Y010508D01*
X027088Y010667D02*
X027226Y010667D01*
X027226Y010825D02*
X027226Y010825D01*
X027226Y010984D02*
X027226Y010984D01*
X027226Y011142D02*
X027226Y011142D01*
X027226Y011301D02*
X027151Y011301D01*
X027226Y011459D02*
X026993Y011459D01*
X027068Y011618D02*
X027074Y011618D01*
X025779Y011459D02*
X024776Y011459D01*
X024776Y011618D02*
X025703Y011618D01*
X025545Y011776D02*
X024776Y011776D01*
X024776Y011935D02*
X025526Y011935D01*
X025526Y012094D02*
X024776Y012094D01*
X025620Y011301D02*
X020409Y011301D01*
X020250Y011459D02*
X023215Y011459D01*
X023215Y011445D02*
X023321Y011340D01*
X023603Y011340D01*
X023603Y011767D01*
X023215Y011767D01*
X023215Y011445D01*
X023215Y011618D02*
X014515Y011618D01*
X014560Y011599D02*
X014286Y011713D01*
X013989Y011713D01*
X013715Y011599D01*
X013505Y011389D01*
X013391Y011115D01*
X013391Y010818D01*
X013505Y010544D01*
X013715Y010334D01*
X013989Y010220D01*
X014286Y010220D01*
X014560Y010334D01*
X014770Y010544D01*
X014796Y010607D01*
X017388Y010607D01*
X017686Y010607D01*
X017935Y010855D01*
X019837Y010855D01*
X020389Y010303D01*
X020389Y010216D01*
X020464Y010034D01*
X020604Y009894D01*
X020787Y009818D01*
X020984Y009818D01*
X021167Y009894D01*
X021307Y010034D01*
X021382Y010216D01*
X021382Y010414D01*
X021307Y010597D01*
X021167Y010736D01*
X020984Y010812D01*
X020898Y010812D01*
X020135Y011575D01*
X019837Y011575D01*
X017637Y011575D01*
X017426Y011364D01*
X017388Y011327D01*
X014796Y011327D01*
X014770Y011389D01*
X014560Y011599D01*
X014700Y011459D02*
X017521Y011459D01*
X017905Y010825D02*
X019866Y010825D01*
X020025Y010667D02*
X019240Y010667D01*
X019187Y010719D02*
X019321Y010585D01*
X019394Y010410D01*
X019394Y010334D01*
X018936Y010334D01*
X018899Y010334D01*
X018899Y010792D01*
X018822Y010792D01*
X018647Y010719D01*
X018513Y010585D01*
X018440Y010410D01*
X018440Y010334D01*
X018898Y010334D01*
X018898Y010297D01*
X018440Y010297D01*
X018440Y010220D01*
X018513Y010045D01*
X018647Y009911D01*
X018822Y009838D01*
X018899Y009838D01*
X018899Y010296D01*
X018936Y010296D01*
X018936Y009838D01*
X019012Y009838D01*
X019187Y009911D01*
X019321Y010045D01*
X019394Y010220D01*
X019394Y010297D01*
X018936Y010297D01*
X018936Y010334D01*
X018936Y010792D01*
X019012Y010792D01*
X019187Y010719D01*
X018936Y010667D02*
X018899Y010667D01*
X018899Y010508D02*
X018936Y010508D01*
X018936Y010350D02*
X018899Y010350D01*
X018899Y010191D02*
X018936Y010191D01*
X018936Y010032D02*
X018899Y010032D01*
X018899Y009874D02*
X018936Y009874D01*
X019098Y009874D02*
X020652Y009874D01*
X020466Y010032D02*
X019309Y010032D01*
X019382Y010191D02*
X020399Y010191D01*
X020342Y010350D02*
X019394Y010350D01*
X019353Y010508D02*
X020184Y010508D01*
X020726Y010984D02*
X025546Y010984D01*
X025546Y011142D02*
X020568Y011142D01*
X020885Y010825D02*
X025546Y010825D01*
X025683Y010667D02*
X021237Y010667D01*
X021344Y010508D02*
X025799Y010508D01*
X025641Y010350D02*
X021382Y010350D01*
X021372Y010191D02*
X025526Y010191D01*
X025526Y010032D02*
X024737Y010032D01*
X023699Y010032D02*
X023603Y010032D01*
X023603Y010090D02*
X023321Y010090D01*
X023215Y009985D01*
X023215Y009663D01*
X023603Y009663D01*
X023603Y010090D01*
X023603Y009874D02*
X023699Y009874D01*
X023699Y009715D02*
X023603Y009715D01*
X023603Y009567D02*
X023215Y009567D01*
X023215Y009245D01*
X023321Y009140D01*
X023603Y009140D01*
X023603Y009567D01*
X023603Y009557D02*
X023699Y009557D01*
X023699Y009398D02*
X023603Y009398D01*
X023603Y009240D02*
X023699Y009240D01*
X023221Y009240D02*
X014884Y009240D01*
X014884Y009265D02*
X014884Y008968D01*
X014770Y008694D01*
X014560Y008484D01*
X014286Y008370D01*
X013989Y008370D01*
X013715Y008484D01*
X013505Y008694D01*
X013391Y008968D01*
X013391Y009265D01*
X013505Y009539D01*
X013715Y009749D01*
X013989Y009863D01*
X014286Y009863D01*
X014560Y009749D01*
X014770Y009539D01*
X014884Y009265D01*
X014829Y009398D02*
X023215Y009398D01*
X023215Y009557D02*
X014752Y009557D01*
X014594Y009715D02*
X023215Y009715D01*
X023215Y009874D02*
X021119Y009874D01*
X021306Y010032D02*
X023263Y010032D01*
X024776Y009240D02*
X025252Y009240D01*
X025410Y009081D02*
X014884Y009081D01*
X014865Y008923D02*
X022084Y008923D01*
X021926Y008764D02*
X014799Y008764D01*
X014682Y008606D02*
X021767Y008606D01*
X021609Y008447D02*
X014472Y008447D01*
X014419Y008273D02*
X014187Y008370D01*
X013935Y008370D01*
X013702Y008273D01*
X013524Y008095D01*
X013428Y007863D01*
X013428Y007611D01*
X013524Y007378D01*
X013702Y007200D01*
X013935Y007104D01*
X014187Y007104D01*
X014419Y007200D01*
X014598Y007378D01*
X014694Y007611D01*
X014694Y007863D01*
X014598Y008095D01*
X014419Y008273D01*
X014383Y008289D02*
X021451Y008289D01*
X021309Y008130D02*
X014563Y008130D01*
X014649Y007971D02*
X021223Y007971D01*
X021178Y007813D02*
X017493Y007813D01*
X017569Y007781D02*
X017336Y007878D01*
X017085Y007878D01*
X016852Y007781D01*
X016674Y007603D01*
X016577Y007371D01*
X016577Y007119D01*
X016674Y006886D01*
X016852Y006708D01*
X017085Y006612D01*
X017336Y006612D01*
X017569Y006708D01*
X017747Y006886D01*
X017844Y007119D01*
X017844Y007371D01*
X017747Y007603D01*
X017569Y007781D01*
X017696Y007654D02*
X021178Y007654D01*
X021225Y007496D02*
X017792Y007496D01*
X017844Y007337D02*
X021315Y007337D01*
X021504Y007179D02*
X017844Y007179D01*
X017803Y007020D02*
X018176Y007020D01*
X018122Y006998D02*
X017949Y006825D01*
X017856Y006599D01*
X017856Y006355D01*
X017870Y006319D01*
X017856Y006284D01*
X017856Y006040D01*
X017870Y006004D01*
X017856Y005969D01*
X017856Y005725D01*
X017949Y005499D01*
X018122Y005326D01*
X018348Y005232D01*
X018593Y005232D01*
X018818Y005326D01*
X018991Y005499D01*
X019085Y005725D01*
X019085Y005969D01*
X019070Y006004D01*
X019085Y006040D01*
X019085Y006284D01*
X019070Y006319D01*
X019085Y006355D01*
X019085Y006599D01*
X018991Y006825D01*
X018818Y006998D01*
X018593Y007092D01*
X018348Y007092D01*
X018122Y006998D01*
X017986Y006862D02*
X017723Y006862D01*
X017557Y006703D02*
X017899Y006703D01*
X017856Y006545D02*
X015839Y006545D01*
X015758Y006578D02*
X015674Y006578D01*
X015674Y006003D01*
X016249Y006003D01*
X016249Y006087D01*
X016155Y006312D01*
X015983Y006485D01*
X015758Y006578D01*
X015674Y006545D02*
X015597Y006545D01*
X015597Y006578D02*
X015514Y006578D01*
X015288Y006485D01*
X015116Y006312D01*
X015023Y006087D01*
X015023Y006003D01*
X015597Y006003D01*
X015597Y005927D01*
X015023Y005927D01*
X015023Y005843D01*
X015116Y005618D01*
X015288Y005445D01*
X015514Y005352D01*
X015597Y005352D01*
X015597Y005927D01*
X015674Y005927D01*
X015674Y006003D01*
X015597Y006003D01*
X015597Y006578D01*
X015433Y006545D02*
X013416Y006545D01*
X013416Y006386D02*
X015190Y006386D01*
X015081Y006227D02*
X013416Y006227D01*
X013416Y006069D02*
X015023Y006069D01*
X015023Y005910D02*
X013416Y005910D01*
X013416Y005752D02*
X015060Y005752D01*
X015141Y005593D02*
X013361Y005593D01*
X013258Y005435D02*
X015314Y005435D01*
X015597Y005435D02*
X015674Y005435D01*
X015674Y005352D02*
X015758Y005352D01*
X015983Y005445D01*
X016155Y005618D01*
X016249Y005843D01*
X016249Y005927D01*
X015674Y005927D01*
X015674Y005352D01*
X015674Y005593D02*
X015597Y005593D01*
X015597Y005752D02*
X015674Y005752D01*
X015674Y005910D02*
X015597Y005910D01*
X015597Y006069D02*
X015674Y006069D01*
X015674Y006227D02*
X015597Y006227D01*
X015597Y006386D02*
X015674Y006386D01*
X016082Y006386D02*
X017856Y006386D01*
X017856Y006227D02*
X016191Y006227D01*
X016249Y006069D02*
X017856Y006069D01*
X017856Y005910D02*
X016249Y005910D01*
X016211Y005752D02*
X017856Y005752D01*
X017910Y005593D02*
X016131Y005593D01*
X015957Y005435D02*
X018013Y005435D01*
X018242Y005276D02*
X013029Y005276D01*
X012186Y005752D02*
X012126Y005752D01*
X012186Y005910D02*
X011954Y005910D01*
X012186Y006069D02*
X011571Y006069D01*
X012186Y006227D02*
X009991Y006227D01*
X009991Y006069D02*
X010601Y006069D01*
X010218Y005910D02*
X009991Y005910D01*
X009991Y005752D02*
X010045Y005752D01*
X009991Y006386D02*
X012186Y006386D01*
X012186Y006545D02*
X009991Y006545D01*
X009991Y006703D02*
X012229Y006703D01*
X012316Y006862D02*
X009991Y006862D01*
X009991Y007020D02*
X012506Y007020D01*
X013096Y007020D02*
X016618Y007020D01*
X016577Y007179D02*
X014368Y007179D01*
X014557Y007337D02*
X016577Y007337D01*
X016629Y007496D02*
X014646Y007496D01*
X014694Y007654D02*
X016725Y007654D01*
X016928Y007813D02*
X014694Y007813D01*
X013739Y008289D02*
X011030Y008289D01*
X011030Y008447D02*
X013803Y008447D01*
X013593Y008606D02*
X010983Y008606D01*
X010897Y008764D02*
X013476Y008764D01*
X013410Y008923D02*
X010721Y008923D01*
X010050Y008923D02*
X009991Y008923D01*
X009991Y009081D02*
X013391Y009081D01*
X013391Y009240D02*
X009991Y009240D01*
X009991Y009398D02*
X013447Y009398D01*
X013523Y009557D02*
X009991Y009557D01*
X009991Y009715D02*
X013681Y009715D01*
X013699Y010350D02*
X009991Y010350D01*
X009991Y010508D02*
X013541Y010508D01*
X013454Y010667D02*
X009991Y010667D01*
X009991Y010825D02*
X013391Y010825D01*
X013391Y010984D02*
X009991Y010984D01*
X009991Y011142D02*
X013403Y011142D01*
X013468Y011301D02*
X009991Y011301D01*
X009991Y011459D02*
X013575Y011459D01*
X013760Y011618D02*
X009991Y011618D01*
X009991Y011776D02*
X023603Y011776D01*
X023603Y011618D02*
X023699Y011618D01*
X023699Y011459D02*
X023603Y011459D01*
X023215Y011935D02*
X022815Y011935D01*
X022973Y012094D02*
X023215Y012094D01*
X022589Y012728D02*
X021112Y012728D01*
X020660Y012728D02*
X019143Y012728D01*
X019334Y012569D02*
X020469Y012569D01*
X020401Y012411D02*
X019402Y012411D01*
X019414Y012252D02*
X020389Y012252D01*
X020427Y012094D02*
X019376Y012094D01*
X019271Y011935D02*
X020532Y011935D01*
X018563Y011935D02*
X009991Y011935D01*
X009991Y012094D02*
X013934Y012094D01*
X013989Y012071D02*
X014286Y012071D01*
X014560Y012184D01*
X014770Y012394D01*
X014796Y012457D01*
X015037Y012457D01*
X015757Y013178D01*
X015981Y013085D01*
X016391Y013085D01*
X016769Y013242D01*
X017059Y013532D01*
X017216Y013910D01*
X017216Y014320D01*
X017059Y014699D01*
X016769Y014988D01*
X016391Y015145D01*
X015981Y015145D01*
X015602Y014988D01*
X015313Y014699D01*
X015156Y014320D01*
X015156Y013910D01*
X015248Y013687D01*
X014779Y013218D01*
X014770Y013240D01*
X014560Y013450D01*
X014286Y013563D01*
X013989Y013563D01*
X013715Y013450D01*
X013505Y013240D01*
X013391Y012966D01*
X013391Y012669D01*
X013505Y012394D01*
X013715Y012184D01*
X013989Y012071D01*
X014341Y012094D02*
X018458Y012094D01*
X018340Y012252D02*
X014628Y012252D01*
X014777Y012411D02*
X018181Y012411D01*
X018022Y012569D02*
X015149Y012569D01*
X015307Y012728D02*
X017864Y012728D01*
X017826Y012886D02*
X015466Y012886D01*
X015624Y013045D02*
X017826Y013045D01*
X017826Y013203D02*
X016676Y013203D01*
X016889Y013362D02*
X017826Y013362D01*
X017826Y013520D02*
X017048Y013520D01*
X017120Y013679D02*
X017826Y013679D01*
X017826Y013838D02*
X017185Y013838D01*
X017216Y013996D02*
X017826Y013996D01*
X017826Y014155D02*
X017216Y014155D01*
X017216Y014313D02*
X017826Y014313D01*
X017826Y014472D02*
X017153Y014472D01*
X017087Y014630D02*
X017826Y014630D01*
X017826Y014789D02*
X016969Y014789D01*
X016810Y014947D02*
X017794Y014947D01*
X017636Y015106D02*
X016485Y015106D01*
X016714Y015581D02*
X017160Y015581D01*
X017319Y015423D02*
X015365Y015423D01*
X015365Y015501D02*
X015208Y015880D01*
X014919Y016169D01*
X014540Y016326D01*
X014130Y016326D01*
X013752Y016169D01*
X013462Y015880D01*
X013305Y015501D01*
X013305Y015091D01*
X013462Y014713D01*
X013752Y014423D01*
X014130Y014266D01*
X014540Y014266D01*
X014919Y014423D01*
X015208Y014713D01*
X015365Y015091D01*
X015365Y015501D01*
X015332Y015581D02*
X015657Y015581D01*
X015466Y015740D02*
X015266Y015740D01*
X015311Y015899D02*
X015189Y015899D01*
X015245Y016057D02*
X015031Y016057D01*
X015179Y016216D02*
X014807Y016216D01*
X015156Y016374D02*
X009991Y016374D01*
X009991Y016216D02*
X013864Y016216D01*
X013640Y016057D02*
X009991Y016057D01*
X009991Y015899D02*
X013481Y015899D01*
X013404Y015740D02*
X009991Y015740D01*
X009991Y015581D02*
X013339Y015581D01*
X013305Y015423D02*
X009991Y015423D01*
X009991Y015264D02*
X013305Y015264D01*
X013305Y015106D02*
X009991Y015106D01*
X009991Y014947D02*
X013365Y014947D01*
X013431Y014789D02*
X009991Y014789D01*
X009991Y014630D02*
X013545Y014630D01*
X013703Y014472D02*
X009991Y014472D01*
X009991Y014313D02*
X014017Y014313D01*
X014653Y014313D02*
X015156Y014313D01*
X015156Y014155D02*
X010646Y014155D01*
X010866Y013996D02*
X015156Y013996D01*
X015186Y013838D02*
X010970Y013838D01*
X011030Y013679D02*
X015240Y013679D01*
X015082Y013520D02*
X014390Y013520D01*
X014648Y013362D02*
X014923Y013362D01*
X013886Y013520D02*
X011030Y013520D01*
X010999Y013362D02*
X013627Y013362D01*
X013490Y013203D02*
X010933Y013203D01*
X010776Y013045D02*
X013424Y013045D01*
X013391Y012886D02*
X009991Y012886D01*
X009991Y012728D02*
X013391Y012728D01*
X013433Y012569D02*
X009991Y012569D01*
X009991Y012411D02*
X013498Y012411D01*
X013647Y012252D02*
X009991Y012252D01*
X009991Y013045D02*
X009995Y013045D01*
X009991Y014155D02*
X010126Y014155D01*
X014967Y014472D02*
X015219Y014472D01*
X015284Y014630D02*
X015126Y014630D01*
X015240Y014789D02*
X015403Y014789D01*
X015306Y014947D02*
X015561Y014947D01*
X015365Y015106D02*
X015886Y015106D01*
X015365Y015264D02*
X017477Y015264D01*
X017002Y015740D02*
X016905Y015740D01*
X015156Y016533D02*
X009991Y016533D01*
X009991Y016691D02*
X015160Y016691D01*
X015225Y016850D02*
X011664Y016850D01*
X012006Y017008D02*
X015291Y017008D01*
X015419Y017167D02*
X012165Y017167D01*
X012323Y017325D02*
X015577Y017325D01*
X015925Y017484D02*
X012446Y017484D01*
X012512Y017643D02*
X020926Y017643D01*
X020926Y017801D02*
X012577Y017801D01*
X010507Y016850D02*
X009991Y016850D01*
X009991Y017008D02*
X010165Y017008D01*
X010006Y017167D02*
X009991Y017167D01*
X012544Y018911D02*
X020169Y018911D01*
X020235Y019069D02*
X012478Y019069D01*
X012400Y019228D02*
X020349Y019228D01*
X020565Y019387D02*
X012242Y019387D01*
X016447Y017484D02*
X020987Y017484D01*
X021075Y017325D02*
X016794Y017325D01*
X021175Y019387D02*
X025065Y019387D01*
X024849Y019228D02*
X021391Y019228D01*
X021505Y019069D02*
X024735Y019069D01*
X024669Y018911D02*
X021570Y018911D01*
X025675Y019387D02*
X029565Y019387D01*
X029349Y019228D02*
X025891Y019228D01*
X026005Y019069D02*
X029235Y019069D01*
X029169Y018911D02*
X026070Y018911D01*
X031018Y016216D02*
X033676Y016216D01*
X033676Y016057D02*
X031208Y016057D01*
X031314Y015899D02*
X033676Y015899D01*
X033676Y015740D02*
X031380Y015740D01*
X031389Y015581D02*
X033676Y015581D01*
X033676Y015423D02*
X031387Y015423D01*
X031321Y015264D02*
X033676Y015264D01*
X033676Y015106D02*
X031224Y015106D01*
X031057Y014947D02*
X033676Y014947D01*
X044557Y014947D02*
X045626Y014947D01*
X045626Y015106D02*
X044724Y015106D01*
X044821Y015264D02*
X045626Y015264D01*
X045626Y015423D02*
X044887Y015423D01*
X044889Y015581D02*
X045626Y015581D01*
X045626Y015740D02*
X044880Y015740D01*
X044814Y015899D02*
X045626Y015899D01*
X045626Y016057D02*
X044708Y016057D01*
X044581Y017167D02*
X045525Y017167D01*
X045366Y017325D02*
X044739Y017325D01*
X047647Y017167D02*
X048234Y017167D01*
X048075Y017325D02*
X047805Y017325D01*
X052290Y018277D02*
X052450Y018277D01*
X052450Y018435D02*
X052290Y018435D01*
X057111Y009240D02*
X057688Y009240D01*
X057530Y009081D02*
X057270Y009081D01*
X056144Y004959D02*
X053490Y004959D01*
X053490Y004801D02*
X056111Y004801D01*
X056111Y004642D02*
X053490Y004642D01*
X053350Y004483D02*
X056111Y004483D01*
X056111Y004325D02*
X053191Y004325D01*
X053033Y004166D02*
X056146Y004166D01*
X056212Y004008D02*
X052874Y004008D01*
X052716Y003849D02*
X056277Y003849D01*
X056343Y003691D02*
X052557Y003691D01*
X056491Y003532D02*
X012280Y003532D01*
X018698Y005276D02*
X020323Y005276D01*
X020429Y005232D02*
X020673Y005232D01*
X020899Y005326D01*
X021072Y005499D01*
X021166Y005725D01*
X021166Y005969D01*
X021151Y006004D01*
X021166Y006040D01*
X021166Y006284D01*
X021151Y006319D01*
X021166Y006355D01*
X021166Y006599D01*
X021072Y006825D01*
X020899Y006998D01*
X020673Y007092D01*
X020429Y007092D01*
X020203Y006998D01*
X020030Y006825D01*
X019936Y006599D01*
X019936Y006355D01*
X019951Y006319D01*
X019936Y006284D01*
X019936Y006040D01*
X019951Y006004D01*
X019936Y005969D01*
X019936Y005725D01*
X020030Y005499D01*
X020203Y005326D01*
X020429Y005232D01*
X020779Y005276D02*
X025992Y005276D01*
X025763Y005435D02*
X023707Y005435D01*
X023733Y005445D02*
X023905Y005618D01*
X023999Y005843D01*
X023999Y005927D01*
X023424Y005927D01*
X023424Y006003D01*
X023999Y006003D01*
X023999Y006087D01*
X023905Y006312D01*
X023733Y006485D01*
X023508Y006578D01*
X023424Y006578D01*
X023424Y006003D01*
X023347Y006003D01*
X023347Y005927D01*
X022773Y005927D01*
X022773Y005843D01*
X022866Y005618D01*
X023038Y005445D01*
X023264Y005352D01*
X023347Y005352D01*
X023347Y005927D01*
X023424Y005927D01*
X023424Y005352D01*
X023508Y005352D01*
X023733Y005445D01*
X023881Y005593D02*
X025660Y005593D01*
X025606Y005752D02*
X023961Y005752D01*
X023999Y005910D02*
X025606Y005910D01*
X025606Y006069D02*
X023999Y006069D01*
X023941Y006227D02*
X025606Y006227D01*
X025606Y006386D02*
X023832Y006386D01*
X023589Y006545D02*
X025606Y006545D01*
X025649Y006703D02*
X025307Y006703D01*
X025473Y006862D02*
X025736Y006862D01*
X025553Y007020D02*
X025926Y007020D01*
X024614Y006703D02*
X021123Y006703D01*
X021166Y006545D02*
X023183Y006545D01*
X023264Y006578D02*
X023038Y006485D01*
X022866Y006312D01*
X022773Y006087D01*
X022773Y006003D01*
X023347Y006003D01*
X023347Y006578D01*
X023264Y006578D01*
X023347Y006545D02*
X023424Y006545D01*
X023424Y006386D02*
X023347Y006386D01*
X023347Y006227D02*
X023424Y006227D01*
X023424Y006069D02*
X023347Y006069D01*
X023347Y005910D02*
X023424Y005910D01*
X023424Y005752D02*
X023347Y005752D01*
X023347Y005593D02*
X023424Y005593D01*
X023424Y005435D02*
X023347Y005435D01*
X023064Y005435D02*
X021008Y005435D01*
X021111Y005593D02*
X022891Y005593D01*
X022810Y005752D02*
X021166Y005752D01*
X021166Y005910D02*
X022773Y005910D01*
X022773Y006069D02*
X021166Y006069D01*
X021166Y006227D02*
X022831Y006227D01*
X022940Y006386D02*
X021166Y006386D01*
X021036Y006862D02*
X024448Y006862D01*
X024368Y007020D02*
X020846Y007020D01*
X020256Y007020D02*
X018765Y007020D01*
X018955Y006862D02*
X020066Y006862D01*
X019979Y006703D02*
X019042Y006703D01*
X019085Y006545D02*
X019936Y006545D01*
X019936Y006386D02*
X019085Y006386D01*
X019085Y006227D02*
X019936Y006227D01*
X019936Y006069D02*
X019085Y006069D01*
X019085Y005910D02*
X019936Y005910D01*
X019936Y005752D02*
X019085Y005752D01*
X019030Y005593D02*
X019991Y005593D01*
X020094Y005435D02*
X018927Y005435D01*
X016864Y006703D02*
X013373Y006703D01*
X013286Y006862D02*
X016698Y006862D01*
X013754Y007179D02*
X009991Y007179D01*
X009991Y007337D02*
X013565Y007337D01*
X013475Y007496D02*
X009991Y007496D01*
X009991Y007654D02*
X013428Y007654D01*
X013428Y007813D02*
X010738Y007813D01*
X010904Y007971D02*
X013473Y007971D01*
X013559Y008130D02*
X010986Y008130D01*
X010034Y007813D02*
X009991Y007813D01*
X009991Y009874D02*
X018736Y009874D01*
X018525Y010032D02*
X009991Y010032D01*
X009991Y010191D02*
X018452Y010191D01*
X018440Y010350D02*
X014576Y010350D01*
X014734Y010508D02*
X018481Y010508D01*
X018594Y010667D02*
X017746Y010667D01*
X022313Y008130D02*
X025341Y008130D01*
X025183Y007971D02*
X022399Y007971D01*
X022444Y007813D02*
X024678Y007813D01*
X024475Y007654D02*
X022444Y007654D01*
X022396Y007496D02*
X024379Y007496D01*
X024327Y007337D02*
X022307Y007337D01*
X022118Y007179D02*
X024327Y007179D01*
X025500Y008289D02*
X022468Y008289D01*
X033048Y006069D02*
X033535Y006069D01*
X033376Y006227D02*
X033207Y006227D01*
X035206Y005910D02*
X035726Y005910D01*
X035726Y005752D02*
X035206Y005752D01*
X035206Y005593D02*
X035726Y005593D01*
X035770Y005435D02*
X035206Y005435D01*
X035206Y005276D02*
X035929Y005276D01*
X036087Y005118D02*
X035206Y005118D01*
X035206Y004959D02*
X036246Y004959D01*
X036404Y004801D02*
X035296Y004801D01*
X035455Y004642D02*
X036563Y004642D01*
X036721Y005276D02*
X040823Y005276D01*
X040594Y005435D02*
X036562Y005435D01*
X036403Y005593D02*
X040491Y005593D01*
X041279Y005276D02*
X045001Y005276D01*
X045159Y005435D02*
X044207Y005435D01*
X044233Y005445D02*
X044405Y005618D01*
X044499Y005843D01*
X044499Y005927D01*
X043924Y005927D01*
X043924Y006003D01*
X044499Y006003D01*
X044499Y006087D01*
X044405Y006312D01*
X044233Y006485D01*
X044008Y006578D01*
X043924Y006578D01*
X043924Y006003D01*
X043847Y006003D01*
X043847Y005927D01*
X043273Y005927D01*
X043273Y005843D01*
X043366Y005618D01*
X043538Y005445D01*
X043764Y005352D01*
X043847Y005352D01*
X043847Y005927D01*
X043924Y005927D01*
X043924Y005352D01*
X044008Y005352D01*
X044233Y005445D01*
X044381Y005593D02*
X045180Y005593D01*
X045180Y005752D02*
X044461Y005752D01*
X044499Y005910D02*
X045180Y005910D01*
X045180Y006069D02*
X044499Y006069D01*
X044441Y006227D02*
X045180Y006227D01*
X045180Y006386D02*
X044332Y006386D01*
X044089Y006545D02*
X045180Y006545D01*
X045114Y006703D02*
X041623Y006703D01*
X041666Y006545D02*
X043683Y006545D01*
X043764Y006578D02*
X043538Y006485D01*
X043366Y006312D01*
X043273Y006087D01*
X043273Y006003D01*
X043847Y006003D01*
X043847Y006578D01*
X043764Y006578D01*
X043847Y006545D02*
X043924Y006545D01*
X043924Y006386D02*
X043847Y006386D01*
X043847Y006227D02*
X043924Y006227D01*
X043924Y006069D02*
X043847Y006069D01*
X043847Y005910D02*
X043924Y005910D01*
X043924Y005752D02*
X043847Y005752D01*
X043847Y005593D02*
X043924Y005593D01*
X043924Y005435D02*
X043847Y005435D01*
X043564Y005435D02*
X041508Y005435D01*
X041611Y005593D02*
X043391Y005593D01*
X043310Y005752D02*
X041666Y005752D01*
X041666Y005910D02*
X043273Y005910D01*
X043273Y006069D02*
X041666Y006069D01*
X041666Y006227D02*
X043331Y006227D01*
X043440Y006386D02*
X041666Y006386D01*
X041536Y006862D02*
X044948Y006862D01*
X035695Y006069D02*
X035237Y006069D01*
X035395Y006227D02*
X035536Y006227D01*
M02*
