G75*
G70*
%OFA0B0*%
%FSLAX24Y24*%
%IPPOS*%
%LPD*%
%AMOC8*
5,1,8,0,0,1.08239X$1,22.5*
%
%ADD10C,0.1143*%
%ADD11C,0.1740*%
%ADD12O,0.1400X0.0740*%
%ADD13C,0.1380*%
%ADD14OC8,0.0700*%
%ADD15C,0.0700*%
%ADD16OC8,0.0600*%
%ADD17R,0.0592X0.0671*%
%ADD18R,0.0671X0.0592*%
%ADD19C,0.0808*%
%ADD20C,0.1173*%
%ADD21OC8,0.0680*%
%ADD22C,0.2080*%
%ADD23C,0.0674*%
%ADD24C,0.0946*%
%ADD25C,0.0749*%
%ADD26C,0.2830*%
D10*
X021657Y015573D03*
X026157Y015573D03*
X026157Y017778D03*
X025370Y018743D03*
X021657Y017778D03*
X020870Y018743D03*
X029870Y018743D03*
X030657Y017778D03*
X034370Y018743D03*
X035157Y017778D03*
X038870Y018743D03*
X039657Y017778D03*
X043370Y018743D03*
X044157Y017778D03*
X047870Y018743D03*
X048657Y017778D03*
X052370Y018743D03*
X053157Y017778D03*
X053157Y015573D03*
X048657Y015573D03*
X044157Y015573D03*
X039657Y015573D03*
X035157Y015573D03*
X030657Y015573D03*
D11*
X016186Y016477D03*
X014335Y015296D03*
X016186Y014115D03*
D12*
X026386Y012015D03*
X026386Y011015D03*
X026386Y010015D03*
D13*
X032286Y011015D03*
D14*
X038786Y010415D03*
X044986Y010415D03*
X049986Y010415D03*
D15*
X049986Y011415D03*
X044986Y011415D03*
X038786Y011415D03*
D16*
X052886Y011915D03*
X056886Y011915D03*
X056886Y008815D03*
X057886Y008815D03*
D17*
X024320Y009615D03*
X023651Y009615D03*
X023651Y011815D03*
X024320Y011815D03*
D18*
X035586Y011250D03*
X035586Y010580D03*
X043386Y010580D03*
X043386Y011250D03*
D19*
X010386Y013565D03*
X010386Y008364D03*
D20*
X014138Y009116D03*
X014138Y010967D03*
X014138Y012817D03*
D21*
X032226Y007465D03*
X033306Y007465D03*
X034386Y007465D03*
X035466Y007465D03*
X036546Y007465D03*
X036006Y006465D03*
X034926Y006465D03*
X033846Y006465D03*
X032766Y006465D03*
D22*
X029456Y006965D03*
X039316Y006965D03*
D23*
X020886Y010315D03*
X018917Y010315D03*
X018917Y012284D03*
X020886Y012284D03*
D24*
X021811Y007737D03*
X024960Y007245D03*
X023386Y005965D03*
X017210Y007245D03*
X015636Y005965D03*
X014061Y007737D03*
X042311Y007737D03*
X045460Y007245D03*
X043886Y005965D03*
X050061Y007737D03*
X053210Y007245D03*
X051636Y005965D03*
D25*
X054470Y005847D03*
X054470Y006162D03*
X054470Y006477D03*
X048801Y006477D03*
X048801Y006162D03*
X048801Y005847D03*
X046720Y005847D03*
X046720Y006162D03*
X046720Y006477D03*
X041051Y006477D03*
X041051Y006162D03*
X041051Y005847D03*
X026220Y005847D03*
X026220Y006162D03*
X026220Y006477D03*
X020551Y006477D03*
X020551Y006162D03*
X020551Y005847D03*
X018470Y005847D03*
X018470Y006162D03*
X018470Y006477D03*
X012801Y006477D03*
X012801Y006162D03*
X012801Y005847D03*
D26*
X011086Y004565D03*
X011086Y018315D03*
X057686Y018315D03*
X057686Y004565D03*
M02*
